<svg width="585" height="256" viewBox="0 0 585 256" fill="none" xmlns="http://www.w3.org/2000/svg">
<g filter="url(#filter0_d_126_222)">
<ellipse cx="292.5" cy="9" rx="284.5" ry="231" fill="#8A010B"/>
<path d="M569.5 9C569.5 131.051 447.018 232.5 292.5 232.5C137.982 232.5 15.5 131.051 15.5 9C15.5 -113.051 137.982 -214.5 292.5 -214.5C447.018 -214.5 569.5 -113.051 569.5 9Z" stroke="#DCB051" stroke-width="15"/>
</g>
<path d="M533.5 -11C533.5 104.285 425.3 199.5 289.5 199.5C153.7 199.5 45.5 104.285 45.5 -11C45.5 -126.285 153.7 -221.5 289.5 -221.5C425.3 -221.5 533.5 -126.285 533.5 -11Z" fill="#8A010B" stroke="#AC0C1A" stroke-width="15"/>
<path d="M478.5 -79C478.5 37.7505 390.27 131.5 282.5 131.5C174.73 131.5 86.5 37.7505 86.5 -79C86.5 -195.751 174.73 -289.5 282.5 -289.5C390.27 -289.5 478.5 -195.751 478.5 -79Z" fill="#8A010B" stroke="#AC0C1A" stroke-width="15"/>
<path d="M448.5 -108C448.5 8.30728 373.907 97.5 287.5 97.5C201.093 97.5 126.5 8.30728 126.5 -108C126.5 -224.307 201.093 -313.5 287.5 -313.5C373.907 -313.5 448.5 -224.307 448.5 -108Z" fill="#8A010B" stroke="#AC0C1A" stroke-width="25"/>
<defs>
<filter id="filter0_d_126_222" x="0" y="-222" width="585" height="478" filterUnits="userSpaceOnUse" color-interpolation-filters="sRGB">
<feFlood flood-opacity="0" result="BackgroundImageFix"/>
<feColorMatrix in="SourceAlpha" type="matrix" values="0 0 0 0 0 0 0 0 0 0 0 0 0 0 0 0 0 0 127 0" result="hardAlpha"/>
<feOffset dy="8"/>
<feGaussianBlur stdDeviation="4"/>
<feComposite in2="hardAlpha" operator="out"/>
<feColorMatrix type="matrix" values="0 0 0 0 0 0 0 0 0 0 0 0 0 0 0 0 0 0 0.25 0"/>
<feBlend mode="normal" in2="BackgroundImageFix" result="effect1_dropShadow_126_222"/>
<feBlend mode="normal" in="SourceGraphic" in2="effect1_dropShadow_126_222" result="shape"/>
</filter>
</defs>
</svg>
