<svg width="231" height="207" viewBox="0 0 231 207" fill="none" xmlns="http://www.w3.org/2000/svg">
<circle cx="115.354" cy="115.791" r="90" transform="rotate(-20 115.354 115.791)" fill="#A70F09"/>
<rect x="39.1497" y="92.9629" width="117.604" height="76.6562" rx="33" transform="rotate(-29.6178 39.1497 92.9629)" fill="white"/>
<ellipse cx="145.718" cy="154.493" rx="3.65954" ry="11.8823" transform="rotate(-35.4 145.718 154.493)" fill="white"/>
<path d="M139.065 174.404C136.68 176.347 133.452 177.056 130.092 176.376C126.732 175.695 123.515 173.68 121.148 170.775C118.781 167.869 117.459 164.311 117.473 160.883C117.486 157.454 118.833 154.437 121.219 152.494L130.142 163.449L139.065 174.404Z" fill="white"/>
<path d="M171.795 156.229C173.667 154.958 174.645 152.534 174.514 149.49C174.382 146.446 173.151 143.03 171.092 139.995C169.033 136.96 166.315 134.554 163.535 133.306C160.755 132.058 158.141 132.071 156.268 133.341L164.032 144.785L171.795 156.229Z" fill="white"/>
<ellipse cx="2.49996" cy="2.50215" rx="2.49996" ry="2.50215" transform="matrix(0.952033 -0.306046 0.30558 0.952151 129.631 77.7646)" fill="#1B1B1B"/>
<ellipse cx="2.49996" cy="2.50215" rx="2.49996" ry="2.50215" transform="matrix(0.952033 -0.306046 0.30558 0.952151 85.7922 101.091)" fill="#1B1B1B"/>
<path d="M85.7564 126.175C86.6043 123.377 88.7569 122.116 92.8071 122.516C96.8574 122.916 99.8555 123.677 104.671 119.217C110.751 113.568 113.971 100.087 113.971 100.087C113.971 100.087 116.964 117.297 106.528 127.407C98.181 135.521 83.6266 133.223 85.7564 126.175Z" fill="#5A4136"/>
<path d="M160.236 90.4114C157.704 88.9493 155.271 89.5018 152.589 92.5633C149.908 95.6248 148.241 98.2303 141.677 98.2694C133.379 98.3057 121.81 90.6726 121.81 90.6726C121.81 90.6726 131.395 105.276 145.923 105.516C157.562 105.727 166.61 94.0973 160.236 90.4114Z" fill="#5A4136"/>
<circle cx="72.2026" cy="121.302" r="7" transform="rotate(-3 72.2026 121.302)" fill="#A70F09"/>
<circle cx="155.097" cy="78.9058" r="7" transform="rotate(-3 155.097 78.9058)" fill="#A70F09"/>
<path d="M69.8386 100.19L74.227 83.9961L93.5056 84.3044L69.8386 100.19Z" fill="#5A4136"/>
<path d="M132.953 58.4984L116.184 59.0104L112.011 77.8346L132.953 58.4984Z" fill="#5A4136"/>
</svg>
