<svg width="268" height="243" viewBox="0 0 268 243" fill="none" xmlns="http://www.w3.org/2000/svg">
<ellipse cx="161.334" cy="133.523" rx="71.9618" ry="68.3335" transform="rotate(-20 161.334 133.523)" fill="#4F8C5E"/>
<line y1="-1" x2="11.5399" y2="-1" transform="matrix(-0.766437 0.642319 0.643257 0.765651 182.439 88.8657)" stroke="#5A4136" stroke-width="2"/>
<line y1="-1" x2="11.5399" y2="-1" transform="matrix(1 -0.000611494 -0.000612391 1 115.846 113.104)" stroke="#5A4136" stroke-width="2"/>
<ellipse cx="127.13" cy="125.546" rx="5.77122" ry="5.76024" transform="rotate(-20 127.13 125.546)" fill="white"/>
<ellipse cx="127.315" cy="125.632" rx="1.87565" ry="1.87208" transform="rotate(-20 127.315 125.632)" fill="#1B1B1B"/>
<ellipse cx="181.411" cy="107.629" rx="5.77122" ry="5.76024" transform="rotate(-20 181.411 107.629)" fill="white"/>
<ellipse cx="181.596" cy="107.715" rx="1.87565" ry="1.87208" transform="rotate(-20 181.596 107.715)" fill="#1B1B1B"/>
<path d="M158.169 151.13C161.272 159.654 159.315 169.701 152.653 179.445C145.99 189.189 135.065 197.983 121.861 204.232C108.657 210.481 94.0492 213.769 80.6911 213.5C67.3329 213.231 56.1101 209.421 49.0605 202.764C42.011 196.107 39.6022 187.043 42.2717 177.219C44.9412 167.395 52.5119 157.462 63.609 149.223C74.7061 140.984 88.5936 134.987 102.75 132.32C116.906 129.653 130.391 130.493 140.758 134.687L100.409 172.153L158.169 151.13Z" fill="#4F8C5E"/>
<path d="M105.125 94.5783C103.078 98.9287 99.3855 102.291 94.8594 103.926C90.3333 105.561 85.3444 105.334 80.9901 103.296C76.6359 101.258 73.273 97.5747 71.6413 93.0572C70.0095 88.5397 70.2426 83.5578 72.2892 79.2074L88.7069 86.8928L105.125 94.5783Z" fill="#4F8C5E"/>
<path d="M191.125 69.646C195.489 71.663 200.479 71.8653 204.997 70.2084C209.515 68.5515 213.191 65.1711 215.217 60.8108C217.242 56.4505 217.451 51.4675 215.797 46.958C214.143 42.4486 210.762 38.782 206.398 36.765L198.762 53.2055L191.125 69.646Z" fill="#4F8C5E"/>
<line y1="-4" x2="49.8907" y2="-4" transform="matrix(-0.0187453 0.999824 -0.999847 -0.0174696 115.473 33.9712)" stroke="white" stroke-width="8"/>
<line y1="-2.5" x2="29.9364" y2="-2.5" transform="matrix(0.693835 0.720134 -0.721384 0.692536 95.3684 48.7197)" stroke="white" stroke-width="5"/>
<line y1="-4" x2="49.8945" y2="-4" transform="matrix(0.464136 0.885439 0.886181 -0.463958 153.553 25.2729)" stroke="white" stroke-width="8"/>
<line y1="-2.5" x2="29.9385" y2="-2.5" transform="matrix(-0.298041 0.954886 0.954929 0.295766 178.128 29.4443)" stroke="white" stroke-width="5"/>
<ellipse cx="63.2685" cy="184.078" rx="17.4907" ry="16.4599" transform="rotate(-20 63.2685 184.078)" fill="white"/>
<ellipse cx="80.0053" cy="171.617" rx="17.4907" ry="19.4526" transform="rotate(-20 80.0053 171.617)" fill="white"/>
<ellipse cx="76.2063" cy="171.408" rx="4.99735" ry="4.98784" transform="rotate(-20 76.2063 171.408)" fill="#4F8C5E"/>
<ellipse cx="61.3481" cy="183.185" rx="4.99735" ry="4.98784" transform="rotate(-20 61.3481 183.185)" fill="#4F8C5E"/>
<ellipse cx="112.574" cy="152.503" rx="8.65683" ry="8.64036" transform="rotate(-20 112.574 152.503)" fill="#A70E08"/>
<ellipse cx="8.65683" cy="8.64036" rx="8.65683" ry="8.64036" transform="matrix(-0.939693 0.34202 0.34202 0.939693 213.808 104.34)" fill="#A70E08"/>
<path d="M223.671 157.445C222.577 162.096 220.014 166.644 216.084 169.717C212.203 172.84 207.396 174.49 202.642 175.013C200.24 175.299 197.839 175.291 195.39 174.988C192.941 174.686 190.592 174.09 188.292 173.299C183.593 171.764 179.488 168.614 176.165 165.957C172.793 163.3 169.615 161.33 165.847 160.141C164.036 159.547 161.931 159.05 160.168 158.75C158.356 158.499 156.445 158.444 154.485 158.535C150.565 158.767 146.495 159.537 142.621 160.7C138.746 161.863 134.968 163.467 131.875 165.416L131.826 165.416C129.371 167.025 126.09 166.279 124.531 163.824C122.971 161.418 123.717 158.187 126.172 156.578C126.27 156.529 126.368 156.481 126.466 156.432C130.982 153.948 135.495 152.396 140.154 151.285C144.714 150.173 149.42 149.503 154.319 149.519C156.769 149.528 159.218 149.732 161.764 150.23C163.086 150.48 164.212 150.875 165.338 151.222C166.512 151.569 167.638 152.063 168.763 152.459C173.314 154.287 177.517 157.388 180.789 160.436C184.111 163.485 186.895 166.043 190.565 167.525C194.185 169.203 198.103 169.755 202.121 169.523C206.091 169.292 210.014 168.08 213.109 165.788C216.252 163.544 218.419 160.122 219.559 156.255C219.906 155.129 221.084 154.447 222.21 154.794C223.287 155.092 223.969 156.221 223.72 157.347L223.671 157.445Z" fill="#5A4136"/>
</svg>
