<svg width="184" height="211" viewBox="0 0 184 211" fill="none" xmlns="http://www.w3.org/2000/svg">
<path d="M163.869 65.5631L49.1479 31.2981L21.9435 93.512L1.29397 170.577L119.291 205.72L163.869 65.5631Z" fill="#A70F09"/>
<path d="M156.742 123.875L162.279 64.633L136.237 136.862L117.887 205.343L142.153 189.667L156.742 123.875Z" fill="white"/>
<mask id="path-3-inside-1_156_3842" fill="white">
<path d="M133.387 62.5739C134.775 58.0627 135.424 53.3725 135.298 48.7711C135.173 44.1697 134.274 39.7471 132.654 35.756C131.034 31.7649 128.724 28.2834 125.856 25.5102C122.988 22.737 119.618 20.7265 115.939 19.5934C112.26 18.4604 108.343 18.227 104.413 18.9065C100.483 19.5861 96.6161 21.1653 93.0332 23.554C89.4503 25.9427 86.2216 29.0942 83.5314 32.8284C80.8413 36.5626 78.7423 40.8065 77.3545 45.3177L105.371 53.9458L133.387 62.5739Z"/>
</mask>
<path d="M133.387 62.5739C134.775 58.0627 135.424 53.3725 135.298 48.7711C135.173 44.1697 134.274 39.7471 132.654 35.756C131.034 31.7649 128.724 28.2834 125.856 25.5102C122.988 22.737 119.618 20.7265 115.939 19.5934C112.26 18.4604 108.343 18.227 104.413 18.9065C100.483 19.5861 96.6161 21.1653 93.0332 23.554C89.4503 25.9427 86.2216 29.0942 83.5314 32.8284C80.8413 36.5626 78.7423 40.8065 77.3545 45.3177L105.371 53.9458L133.387 62.5739Z" stroke="#A70F09" stroke-width="20" mask="url(#path-3-inside-1_156_3842)"/>
<rect width="10.1753" height="10.7026" transform="matrix(0.95395 0.299967 -0.29964 0.954052 54.7117 43.3965)" fill="white"/>
<rect width="10.1753" height="10.7026" transform="matrix(0.95395 0.299967 -0.29964 0.954052 17.5699 152.778)" fill="white"/>
<rect width="10.1753" height="10.7026" transform="matrix(0.95395 0.299967 -0.29964 0.954052 69.965 48.1938)" fill="white"/>
<rect width="10.1753" height="10.7026" transform="matrix(0.95395 0.299967 -0.29964 0.954052 32.8235 157.574)" fill="white"/>
<rect width="10.1753" height="10.7026" transform="matrix(0.95395 0.299967 -0.29964 0.954052 85.2185 52.9897)" fill="white"/>
<rect width="10.1753" height="10.7026" transform="matrix(0.95395 0.299967 -0.29964 0.954052 48.0771 162.371)" fill="white"/>
<rect width="10.1753" height="10.7026" transform="matrix(0.95395 0.299967 -0.29964 0.954052 100.472 57.7861)" fill="white"/>
<rect width="10.1753" height="10.7026" transform="matrix(0.95395 0.299967 -0.29964 0.954052 63.3304 167.167)" fill="white"/>
<rect width="10.1753" height="10.7026" transform="matrix(0.95395 0.299967 -0.29964 0.954052 115.725 62.583)" fill="white"/>
<rect width="10.1753" height="10.7026" transform="matrix(0.95395 0.299967 -0.29964 0.954052 78.5842 171.963)" fill="white"/>
<rect width="10.1753" height="10.7026" transform="matrix(0.95395 0.299967 -0.29964 0.954052 130.517 67.2339)" fill="white"/>
<rect width="10.1753" height="10.7026" transform="matrix(0.95395 0.299967 -0.29964 0.954052 93.3755 176.614)" fill="white"/>
<path d="M68.1728 138.439L73.4589 119.134L97.691 125.684L92.5247 144.964L68.1728 138.439ZM77.3751 102.406L78.9255 96.197L102.757 102.13L101.206 108.338L77.3751 102.406ZM95.1972 122.524L75.9758 117.77L79.0379 105.286L98.4319 110.029L95.1972 122.524ZM75.0885 135.027L79.5786 136.23L80.3892 132.994L75.9661 131.752L75.0885 135.027ZM77.7419 125.547L76.8965 128.491L81.3195 129.733L82.2178 126.803L77.7419 125.547ZM83.2049 111.498L82.4264 114.403L90.6283 116.544L91.4389 113.308L83.2049 111.498ZM89.9827 132.054L90.7998 129.216L86.3626 128.027L85.6228 130.999L89.9827 132.054ZM83.9875 137.525L88.0163 138.548L88.7985 135.417L84.7556 134.447L83.9875 137.525ZM52.8096 133.021L55.8566 121.438C54.2233 122.321 52.5127 123.071 50.7248 123.686L47.9888 116.782C52.6131 114.737 56.9315 112.214 60.9439 109.213L52.1393 107.42L53.818 99.887L73.8225 103.832L72.5324 110.337C70.5035 112.133 68.3363 113.742 66.0307 115.162L70.6504 122.854L64.8647 126.909L62.8887 123.719L60.2333 134.897L52.8096 133.021ZM70.3677 97.0745L65.0198 100.341L60.5189 93.4731L66.2121 90.1861L70.3677 97.0745Z" fill="white"/>
</svg>
