<svg width="543" height="57" viewBox="0 0 543 57" fill="none" xmlns="http://www.w3.org/2000/svg">
<g filter="url(#filter0_d_244_55450)">
<mask id="path-1-outside-1_244_55450" maskUnits="userSpaceOnUse" x="3" y="-1" width="537" height="51" fill="black">
<rect fill="white" x="3" y="-1" width="537" height="51"/>
<path d="M15.1875 37.3125H4.25L4.375 0.8125H15.1875L15.25 14.5H28.5V0.8125H39.25L39.3125 37.5625L28.1875 37.5L28.25 23.8125H15.1875V37.3125ZM61.5 7.3125C64.9583 7.3125 67.9792 8.125 70.5625 9.75C73.1875 11.375 74.625 13.8125 74.875 17.0625C75.0417 21.1875 75.4167 24.8542 76 28.0625C76.625 31.2292 77.75 33.8958 79.375 36.0625L71.1875 40.9375C70.3542 39.9792 69.625 38.9583 69 37.875C67.0833 39.2917 64.5 40 61.25 40C57.875 40 55.125 39.1042 53 37.3125C50.9167 35.4792 49.875 32.9375 49.875 29.6875C49.875 25.6458 51.6458 22.7292 55.1875 20.9375C58.7708 19.1458 62.3958 18.9167 66.0625 20.25C66.0208 18.75 65.5208 17.5417 64.5625 16.625C63.6458 15.7083 62.3333 15.2917 60.625 15.375C58.3333 15.375 56.2083 15.9167 54.25 17L52.0625 9.875C54.8958 8.16667 58.0417 7.3125 61.5 7.3125ZM61.625 33C62.7917 33 63.7708 32.7083 64.5625 32.125C65.3542 31.5 65.8958 30.6667 66.1875 29.625C65.9375 28.6667 65.4375 27.8542 64.6875 27.1875C63.9375 26.4792 63.0208 26.125 61.9375 26.125C60.8125 26.125 59.875 26.4375 59.125 27.0625C58.4167 27.6875 58.0625 28.5208 58.0625 29.5625C58.0625 30.5208 58.375 31.3333 59 32C59.6667 32.6667 60.5417 33 61.625 33ZM98.625 37.3125V48.8125H88.75V13.1875C94.2083 10.6042 99.9792 9.77083 106.062 10.6875C113.479 12.3958 117.146 17.1458 117.062 24.9375C116.979 29.8125 114.958 33.3542 111 35.5625C107.083 37.7708 102.958 38.3542 98.625 37.3125ZM105.875 20.0625C103.75 18.8125 101.521 18.6875 99.1875 19.6875V29.125C100.854 29.5 102.5 29.5 104.125 29.125C105.792 28.7083 106.958 27.7292 107.625 26.1875C108.542 23.4375 107.958 21.3958 105.875 20.0625ZM135.812 37.3125V48.8125H125.938V13.1875C131.396 10.6042 137.167 9.77083 143.25 10.6875C150.667 12.3958 154.333 17.1458 154.25 24.9375C154.167 29.8125 152.146 33.3542 148.188 35.5625C144.271 37.7708 140.146 38.3542 135.812 37.3125ZM143.062 20.0625C140.938 18.8125 138.708 18.6875 136.375 19.6875V29.125C138.042 29.5 139.688 29.5 141.312 29.125C142.979 28.7083 144.146 27.7292 144.812 26.1875C145.729 23.4375 145.146 21.3958 143.062 20.0625ZM178.062 23.375L181.625 11.375L191.875 11.4375L179 48.75H168.938L173.188 35L162.5 11.5625H173.125L178.062 23.375ZM257.75 20.0625V0.625L269.125 0.5V38.3125H259L244.938 21.75V38.3125H233.75V0.5H242.688L257.75 20.0625ZM295.438 8.8125C300.188 8.89583 303.771 10.7708 306.188 14.4375C308.646 18.1042 309.583 22.1667 309 26.625L290.25 28C291.125 30.2917 292.854 31.5625 295.438 31.8125C297.938 31.9375 300.292 31.3958 302.5 30.1875L306.562 36.5625C303.312 38.6875 299.729 39.75 295.812 39.75C286.188 39.5417 281 34.6875 280.25 25.1875C279.917 20.6875 281.208 16.7708 284.125 13.4375C287.042 10.0625 290.812 8.52083 295.438 8.8125ZM289.688 21.3125L300.188 20.625C299.604 17.7083 297.833 16.2917 294.875 16.375C291.833 16.6667 290.104 18.3125 289.688 21.3125ZM343.562 22.25L346 11.375H355.625L347.75 38.1875H339.625L336.875 29.0625L334.25 38.25L325.5 38.1875L318.625 11.3125L327.938 11.25L330.375 21.4375L333.938 11.875H339.875L343.562 22.25ZM417.062 11.625L423 0.125L435.062 0.25L423.812 22.625V38.25H411.75L411.812 22.8125L397.5 0.375H410.312L417.062 11.625ZM454.975 8.8125C459.725 8.89583 463.308 10.7708 465.725 14.4375C468.183 18.1042 469.121 22.1667 468.538 26.625L449.788 28C450.663 30.2917 452.392 31.5625 454.975 31.8125C457.475 31.9375 459.829 31.3958 462.038 30.1875L466.1 36.5625C462.85 38.6875 459.267 39.75 455.35 39.75C445.725 39.5417 440.538 34.6875 439.788 25.1875C439.454 20.6875 440.746 16.7708 443.663 13.4375C446.579 10.0625 450.35 8.52083 454.975 8.8125ZM449.225 21.3125L459.725 20.625C459.142 17.7083 457.371 16.2917 454.413 16.375C451.371 16.6667 449.642 18.3125 449.225 21.3125ZM489.788 7.3125C493.246 7.3125 496.267 8.125 498.85 9.75C501.475 11.375 502.913 13.8125 503.163 17.0625C503.329 21.1875 503.704 24.8542 504.288 28.0625C504.913 31.2292 506.038 33.8958 507.663 36.0625L499.475 40.9375C498.642 39.9792 497.913 38.9583 497.288 37.875C495.371 39.2917 492.788 40 489.538 40C486.163 40 483.413 39.1042 481.288 37.3125C479.204 35.4792 478.163 32.9375 478.163 29.6875C478.163 25.6458 479.933 22.7292 483.475 20.9375C487.058 19.1458 490.683 18.9167 494.35 20.25C494.308 18.75 493.808 17.5417 492.85 16.625C491.933 15.7083 490.621 15.2917 488.913 15.375C486.621 15.375 484.496 15.9167 482.538 17L480.35 9.875C483.183 8.16667 486.329 7.3125 489.788 7.3125ZM489.913 33C491.079 33 492.058 32.7083 492.85 32.125C493.642 31.5 494.183 30.6667 494.475 29.625C494.225 28.6667 493.725 27.8542 492.975 27.1875C492.225 26.4792 491.308 26.125 490.225 26.125C489.1 26.125 488.163 26.4375 487.413 27.0625C486.704 27.6875 486.35 28.5208 486.35 29.5625C486.35 30.5208 486.663 31.3333 487.288 32C487.954 32.6667 488.829 33 489.913 33ZM527.412 14C530.621 11.125 534.433 9.875 538.85 10.25L538.975 19.0625C536.725 18.8542 534.579 19.2917 532.537 20.375C530.537 21.4583 529.1 23.0625 528.225 25.1875L527.85 39.6875H517.975L517.787 10.5L527.412 10.4375V14Z"/>
</mask>
<path d="M15.1875 37.3125H4.25L4.375 0.8125H15.1875L15.25 14.5H28.5V0.8125H39.25L39.3125 37.5625L28.1875 37.5L28.25 23.8125H15.1875V37.3125ZM61.5 7.3125C64.9583 7.3125 67.9792 8.125 70.5625 9.75C73.1875 11.375 74.625 13.8125 74.875 17.0625C75.0417 21.1875 75.4167 24.8542 76 28.0625C76.625 31.2292 77.75 33.8958 79.375 36.0625L71.1875 40.9375C70.3542 39.9792 69.625 38.9583 69 37.875C67.0833 39.2917 64.5 40 61.25 40C57.875 40 55.125 39.1042 53 37.3125C50.9167 35.4792 49.875 32.9375 49.875 29.6875C49.875 25.6458 51.6458 22.7292 55.1875 20.9375C58.7708 19.1458 62.3958 18.9167 66.0625 20.25C66.0208 18.75 65.5208 17.5417 64.5625 16.625C63.6458 15.7083 62.3333 15.2917 60.625 15.375C58.3333 15.375 56.2083 15.9167 54.25 17L52.0625 9.875C54.8958 8.16667 58.0417 7.3125 61.5 7.3125ZM61.625 33C62.7917 33 63.7708 32.7083 64.5625 32.125C65.3542 31.5 65.8958 30.6667 66.1875 29.625C65.9375 28.6667 65.4375 27.8542 64.6875 27.1875C63.9375 26.4792 63.0208 26.125 61.9375 26.125C60.8125 26.125 59.875 26.4375 59.125 27.0625C58.4167 27.6875 58.0625 28.5208 58.0625 29.5625C58.0625 30.5208 58.375 31.3333 59 32C59.6667 32.6667 60.5417 33 61.625 33ZM98.625 37.3125V48.8125H88.75V13.1875C94.2083 10.6042 99.9792 9.77083 106.062 10.6875C113.479 12.3958 117.146 17.1458 117.062 24.9375C116.979 29.8125 114.958 33.3542 111 35.5625C107.083 37.7708 102.958 38.3542 98.625 37.3125ZM105.875 20.0625C103.75 18.8125 101.521 18.6875 99.1875 19.6875V29.125C100.854 29.5 102.5 29.5 104.125 29.125C105.792 28.7083 106.958 27.7292 107.625 26.1875C108.542 23.4375 107.958 21.3958 105.875 20.0625ZM135.812 37.3125V48.8125H125.938V13.1875C131.396 10.6042 137.167 9.77083 143.25 10.6875C150.667 12.3958 154.333 17.1458 154.25 24.9375C154.167 29.8125 152.146 33.3542 148.188 35.5625C144.271 37.7708 140.146 38.3542 135.812 37.3125ZM143.062 20.0625C140.938 18.8125 138.708 18.6875 136.375 19.6875V29.125C138.042 29.5 139.688 29.5 141.312 29.125C142.979 28.7083 144.146 27.7292 144.812 26.1875C145.729 23.4375 145.146 21.3958 143.062 20.0625ZM178.062 23.375L181.625 11.375L191.875 11.4375L179 48.75H168.938L173.188 35L162.5 11.5625H173.125L178.062 23.375ZM257.75 20.0625V0.625L269.125 0.5V38.3125H259L244.938 21.75V38.3125H233.75V0.5H242.688L257.75 20.0625ZM295.438 8.8125C300.188 8.89583 303.771 10.7708 306.188 14.4375C308.646 18.1042 309.583 22.1667 309 26.625L290.25 28C291.125 30.2917 292.854 31.5625 295.438 31.8125C297.938 31.9375 300.292 31.3958 302.5 30.1875L306.562 36.5625C303.312 38.6875 299.729 39.75 295.812 39.75C286.188 39.5417 281 34.6875 280.25 25.1875C279.917 20.6875 281.208 16.7708 284.125 13.4375C287.042 10.0625 290.812 8.52083 295.438 8.8125ZM289.688 21.3125L300.188 20.625C299.604 17.7083 297.833 16.2917 294.875 16.375C291.833 16.6667 290.104 18.3125 289.688 21.3125ZM343.562 22.25L346 11.375H355.625L347.75 38.1875H339.625L336.875 29.0625L334.25 38.25L325.5 38.1875L318.625 11.3125L327.938 11.25L330.375 21.4375L333.938 11.875H339.875L343.562 22.25ZM417.062 11.625L423 0.125L435.062 0.25L423.812 22.625V38.25H411.75L411.812 22.8125L397.5 0.375H410.312L417.062 11.625ZM454.975 8.8125C459.725 8.89583 463.308 10.7708 465.725 14.4375C468.183 18.1042 469.121 22.1667 468.538 26.625L449.788 28C450.663 30.2917 452.392 31.5625 454.975 31.8125C457.475 31.9375 459.829 31.3958 462.038 30.1875L466.1 36.5625C462.85 38.6875 459.267 39.75 455.35 39.75C445.725 39.5417 440.538 34.6875 439.788 25.1875C439.454 20.6875 440.746 16.7708 443.663 13.4375C446.579 10.0625 450.35 8.52083 454.975 8.8125ZM449.225 21.3125L459.725 20.625C459.142 17.7083 457.371 16.2917 454.413 16.375C451.371 16.6667 449.642 18.3125 449.225 21.3125ZM489.788 7.3125C493.246 7.3125 496.267 8.125 498.85 9.75C501.475 11.375 502.913 13.8125 503.163 17.0625C503.329 21.1875 503.704 24.8542 504.288 28.0625C504.913 31.2292 506.038 33.8958 507.663 36.0625L499.475 40.9375C498.642 39.9792 497.913 38.9583 497.288 37.875C495.371 39.2917 492.788 40 489.538 40C486.163 40 483.413 39.1042 481.288 37.3125C479.204 35.4792 478.163 32.9375 478.163 29.6875C478.163 25.6458 479.933 22.7292 483.475 20.9375C487.058 19.1458 490.683 18.9167 494.35 20.25C494.308 18.75 493.808 17.5417 492.85 16.625C491.933 15.7083 490.621 15.2917 488.913 15.375C486.621 15.375 484.496 15.9167 482.538 17L480.35 9.875C483.183 8.16667 486.329 7.3125 489.788 7.3125ZM489.913 33C491.079 33 492.058 32.7083 492.85 32.125C493.642 31.5 494.183 30.6667 494.475 29.625C494.225 28.6667 493.725 27.8542 492.975 27.1875C492.225 26.4792 491.308 26.125 490.225 26.125C489.1 26.125 488.163 26.4375 487.413 27.0625C486.704 27.6875 486.35 28.5208 486.35 29.5625C486.35 30.5208 486.663 31.3333 487.288 32C487.954 32.6667 488.829 33 489.913 33ZM527.412 14C530.621 11.125 534.433 9.875 538.85 10.25L538.975 19.0625C536.725 18.8542 534.579 19.2917 532.537 20.375C530.537 21.4583 529.1 23.0625 528.225 25.1875L527.85 39.6875H517.975L517.787 10.5L527.412 10.4375V14Z" fill="#A70F09"/>
<path d="M15.1875 37.3125V38.3125H16.1875V37.3125H15.1875ZM4.25 37.3125L3.25001 37.3091L3.24657 38.3125H4.25V37.3125ZM4.375 0.8125V-0.1875H3.37842L3.37501 0.809075L4.375 0.8125ZM15.1875 0.8125L16.1875 0.807934L16.1829 -0.1875H15.1875V0.8125ZM15.25 14.5L14.25 14.5046L14.2546 15.5H15.25V14.5ZM28.5 14.5V15.5H29.5V14.5H28.5ZM28.5 0.8125V-0.1875H27.5V0.8125H28.5ZM39.25 0.8125L40.25 0.810799L40.2483 -0.1875H39.25V0.8125ZM39.3125 37.5625L39.3069 38.5625L40.3142 38.5681L40.3125 37.5608L39.3125 37.5625ZM28.1875 37.5L27.1875 37.4954L27.1829 38.4944L28.1819 38.5L28.1875 37.5ZM28.25 23.8125L29.25 23.8171L29.2546 22.8125H28.25V23.8125ZM15.1875 23.8125V22.8125H14.1875V23.8125H15.1875ZM15.1875 36.3125H4.25V38.3125H15.1875V36.3125ZM5.24999 37.3159L5.37499 0.815925L3.37501 0.809075L3.25001 37.3091L5.24999 37.3159ZM4.375 1.8125H15.1875V-0.1875H4.375V1.8125ZM14.1875 0.817066L14.25 14.5046L16.25 14.4954L16.1875 0.807934L14.1875 0.817066ZM15.25 15.5H28.5V13.5H15.25V15.5ZM29.5 14.5V0.8125H27.5V14.5H29.5ZM28.5 1.8125H39.25V-0.1875H28.5V1.8125ZM38.25 0.814201L38.3125 37.5642L40.3125 37.5608L40.25 0.810799L38.25 0.814201ZM39.3181 36.5625L28.1931 36.5L28.1819 38.5L39.3069 38.5625L39.3181 36.5625ZM29.1875 37.5046L29.25 23.8171L27.25 23.8079L27.1875 37.4954L29.1875 37.5046ZM28.25 22.8125H15.1875V24.8125H28.25V22.8125ZM14.1875 23.8125V37.3125H16.1875V23.8125H14.1875ZM70.5625 9.75L70.03 10.5965L70.0361 10.6003L70.5625 9.75ZM74.875 17.0625L75.8742 17.0221L75.8735 17.0039L75.8721 16.9858L74.875 17.0625ZM76 28.0625L75.0161 28.2414L75.0175 28.2488L75.0189 28.2561L76 28.0625ZM79.375 36.0625L79.8866 36.9217L80.8425 36.3525L80.175 35.4625L79.375 36.0625ZM71.1875 40.9375L70.4329 41.5937L70.9812 42.2242L71.6991 41.7967L71.1875 40.9375ZM69 37.875L69.8662 37.3753L69.3064 36.405L68.4056 37.0708L69 37.875ZM53 37.3125L52.3394 38.0632L52.3473 38.0702L52.3554 38.077L53 37.3125ZM55.1875 20.9375L54.7403 20.0431L54.7361 20.0452L55.1875 20.9375ZM66.0625 20.25L65.7208 21.1898L67.103 21.6924L67.0621 20.2222L66.0625 20.25ZM64.5625 16.625L63.8554 17.3321L63.8632 17.34L63.8713 17.3476L64.5625 16.625ZM60.625 15.375V16.375H60.6494L60.6737 16.3738L60.625 15.375ZM54.25 17L53.294 17.2935L53.6557 18.4716L54.7341 17.875L54.25 17ZM52.0625 9.875L51.5462 9.01862L50.8773 9.42189L51.1065 10.1685L52.0625 9.875ZM64.5625 32.125L65.1557 32.9301L65.1691 32.9202L65.1821 32.9099L64.5625 32.125ZM66.1875 29.625L67.1505 29.8946L67.2234 29.6342L67.1551 29.3726L66.1875 29.625ZM64.6875 27.1875L64.0009 27.9145L64.0119 27.9249L64.0231 27.9349L64.6875 27.1875ZM59.125 27.0625L58.4848 26.2943L58.474 26.3033L58.4634 26.3127L59.125 27.0625ZM59 32L58.2705 32.6839L58.2815 32.6957L58.2929 32.7071L59 32ZM61.5 8.3125C64.7957 8.3125 67.6267 9.08466 70.03 10.5965L71.095 8.90354C68.3317 7.16534 65.121 6.3125 61.5 6.3125V8.3125ZM70.0361 10.6003C72.3725 12.0466 73.6508 14.1866 73.8779 17.1392L75.8721 16.9858C75.5992 13.4384 74.0025 10.7034 71.0889 8.89973L70.0361 10.6003ZM73.8758 17.1029C74.0439 21.2627 74.4226 24.9771 75.0161 28.2414L76.9839 27.8836C76.4107 24.7312 76.0394 21.1123 75.8742 17.0221L73.8758 17.1029ZM75.0189 28.2561C75.6675 31.5422 76.8442 34.3548 78.575 36.6625L80.175 35.4625C78.6558 33.4369 77.5825 30.9162 76.9811 27.8689L75.0189 28.2561ZM78.8634 35.2033L70.6759 40.0783L71.6991 41.7967L79.8866 36.9217L78.8634 35.2033ZM71.9421 40.2813C71.1503 39.3707 70.4586 38.4021 69.8662 37.3753L68.1338 38.3747C68.7914 39.5145 69.5581 40.5876 70.4329 41.5937L71.9421 40.2813ZM68.4056 37.0708C66.7138 38.3213 64.3625 39 61.25 39V41C64.6375 41 67.4529 40.262 69.5944 38.6792L68.4056 37.0708ZM61.25 39C58.0583 39 55.5528 38.1568 53.6446 36.548L52.3554 38.077C54.6972 40.0515 57.6917 41 61.25 41V39ZM53.6606 36.5618C51.8306 34.9514 50.875 32.7043 50.875 29.6875H48.875C48.875 33.1707 50.0027 36.007 52.3394 38.0632L53.6606 36.5618ZM50.875 29.6875C50.875 27.8156 51.2837 26.2628 52.0579 24.9877C52.8314 23.7137 54.0071 22.6553 55.6389 21.8298L54.7361 20.0452C52.8263 21.0113 51.3456 22.3072 50.3483 23.9498C49.3517 25.5913 48.875 27.5177 48.875 29.6875H50.875ZM55.6347 21.8319C58.9799 20.1593 62.3199 19.9531 65.7208 21.1898L66.4042 19.3102C62.4718 17.8802 58.5618 18.1323 54.7403 20.0431L55.6347 21.8319ZM67.0621 20.2222C67.0142 18.4967 66.4279 17.0255 65.2537 15.9024L63.8713 17.3476C64.6138 18.0578 65.0275 19.0033 65.0629 20.2778L67.0621 20.2222ZM65.2696 15.9179C64.095 14.7432 62.4716 14.2837 60.5763 14.3762L60.6737 16.3738C62.195 16.2996 63.1967 16.6734 63.8554 17.3321L65.2696 15.9179ZM60.625 14.375C58.1682 14.375 55.8761 14.9576 53.7659 16.125L54.7341 17.875C56.5406 16.8757 58.4984 16.375 60.625 16.375V14.375ZM55.206 16.7065L53.0185 9.5815L51.1065 10.1685L53.294 17.2935L55.206 16.7065ZM52.5788 10.7314C55.2491 9.12136 58.215 8.3125 61.5 8.3125V6.3125C57.8683 6.3125 54.5425 7.21197 51.5462 9.01862L52.5788 10.7314ZM61.625 34C62.9642 34 64.1619 33.6623 65.1557 32.9301L63.9693 31.3199C63.3798 31.7543 62.6192 32 61.625 32V34ZM65.1821 32.9099C66.1522 32.1441 66.8061 31.1244 67.1505 29.8946L65.2245 29.3554C64.9855 30.2089 64.5561 30.8559 63.9429 31.3401L65.1821 32.9099ZM67.1551 29.3726C66.8545 28.2202 66.2476 27.2363 65.3519 26.4401L64.0231 27.9349C64.6274 28.472 65.0205 29.1131 65.2199 29.8774L67.1551 29.3726ZM65.3741 26.4605C64.4285 25.5674 63.262 25.125 61.9375 25.125V27.125C62.7796 27.125 63.4465 27.391 64.0009 27.9145L65.3741 26.4605ZM61.9375 25.125C60.6162 25.125 59.4414 25.4971 58.4848 26.2943L59.7652 27.8307C60.3086 27.3779 61.0088 27.125 61.9375 27.125V25.125ZM58.4634 26.3127C57.5163 27.1483 57.0625 28.2669 57.0625 29.5625H59.0625C59.0625 28.7747 59.317 28.2267 59.7866 27.8123L58.4634 26.3127ZM57.0625 29.5625C57.0625 30.7613 57.4626 31.8222 58.2705 32.6839L59.7295 31.3161C59.2874 30.8445 59.0625 30.2804 59.0625 29.5625H57.0625ZM58.2929 32.7071C59.1754 33.5896 60.3193 34 61.625 34V32C60.764 32 60.1579 31.7437 59.7071 31.2929L58.2929 32.7071ZM98.625 37.3125L98.8587 36.3402L97.625 36.0436V37.3125H98.625ZM98.625 48.8125V49.8125H99.625V48.8125H98.625ZM88.75 48.8125H87.75V49.8125H88.75V48.8125ZM88.75 13.1875L88.3222 12.2836L87.75 12.5544V13.1875H88.75ZM106.062 10.6875L106.287 9.71302L106.25 9.70439L106.212 9.69866L106.062 10.6875ZM117.062 24.9375L118.062 24.9546L118.062 24.9482L117.062 24.9375ZM111 35.5625L110.513 34.6892L110.509 34.6914L111 35.5625ZM105.875 20.0625L106.414 19.2202L106.398 19.2101L106.382 19.2006L105.875 20.0625ZM99.1875 19.6875L98.7936 18.7684L98.1875 19.0281V19.6875H99.1875ZM99.1875 29.125H98.1875V29.925L98.968 30.1006L99.1875 29.125ZM104.125 29.125L104.35 30.0994L104.359 30.0973L104.368 30.0951L104.125 29.125ZM107.625 26.1875L108.543 26.5844L108.56 26.5447L108.574 26.5037L107.625 26.1875ZM97.625 37.3125V48.8125H99.625V37.3125H97.625ZM98.625 47.8125H88.75V49.8125H98.625V47.8125ZM89.75 48.8125V13.1875H87.75V48.8125H89.75ZM89.1778 14.0914C94.453 11.5947 100.023 10.7887 105.913 11.6763L106.212 9.69866C99.9357 8.75299 93.9637 9.61363 88.3222 12.2836L89.1778 14.0914ZM105.838 11.662C109.383 12.4785 111.926 13.995 113.583 16.1423C115.243 18.2923 116.103 21.1881 116.063 24.9268L118.062 24.9482C118.106 20.8953 117.174 17.5202 115.167 14.9202C113.158 12.3175 110.159 10.6049 106.287 9.71302L105.838 11.662ZM116.063 24.9204C115.985 29.4719 114.132 32.67 110.513 34.6892L111.487 36.4358C115.784 34.0384 117.973 30.1531 118.062 24.9546L116.063 24.9204ZM110.509 34.6914C106.81 36.7769 102.944 37.3222 98.8587 36.3402L98.3913 38.2848C102.973 39.3861 107.356 38.7648 111.491 36.4336L110.509 34.6914ZM106.382 19.2006C103.973 17.7837 101.409 17.6475 98.7936 18.7684L99.5814 20.6066C101.633 19.7275 103.527 19.8413 105.368 20.9244L106.382 19.2006ZM98.1875 19.6875V29.125H100.188V19.6875H98.1875ZM98.968 30.1006C100.777 30.5077 102.575 30.509 104.35 30.0994L103.9 28.1506C102.425 28.491 100.931 28.4923 99.407 28.1494L98.968 30.1006ZM104.368 30.0951C106.328 29.605 107.749 28.4194 108.543 26.5844L106.707 25.7906C106.167 27.0389 105.255 27.8117 103.882 28.1549L104.368 30.0951ZM108.574 26.5037C109.073 25.0056 109.2 23.5927 108.837 22.319C108.467 21.0259 107.625 19.9953 106.414 19.2202L105.336 20.9048C106.208 21.463 106.7 22.1199 106.913 22.8685C107.133 23.6364 107.094 24.6194 106.676 25.8713L108.574 26.5037ZM135.812 37.3125L136.046 36.3402L134.812 36.0436V37.3125H135.812ZM135.812 48.8125V49.8125H136.812V48.8125H135.812ZM125.938 48.8125H124.938V49.8125H125.938V48.8125ZM125.938 13.1875L125.51 12.2836L124.938 12.5544V13.1875H125.938ZM143.25 10.6875L143.474 9.71302L143.437 9.70439L143.399 9.69866L143.25 10.6875ZM154.25 24.9375L155.25 24.9546L155.25 24.9482L154.25 24.9375ZM148.188 35.5625L147.7 34.6892L147.696 34.6914L148.188 35.5625ZM143.062 20.0625L143.602 19.2202L143.586 19.2101L143.57 19.2006L143.062 20.0625ZM136.375 19.6875L135.981 18.7684L135.375 19.0281V19.6875H136.375ZM136.375 29.125H135.375V29.925L136.155 30.1006L136.375 29.125ZM141.312 29.125L141.537 30.0994L141.546 30.0973L141.555 30.0951L141.312 29.125ZM144.812 26.1875L145.73 26.5844L145.748 26.5447L145.761 26.5037L144.812 26.1875ZM134.812 37.3125V48.8125H136.812V37.3125H134.812ZM135.812 47.8125H125.938V49.8125H135.812V47.8125ZM126.938 48.8125V13.1875H124.938V48.8125H126.938ZM126.365 14.0914C131.641 11.5947 137.21 10.7887 143.101 11.6763L143.399 9.69866C137.123 8.75299 131.151 9.61363 125.51 12.2836L126.365 14.0914ZM143.026 11.662C146.57 12.4785 149.113 13.995 150.771 16.1423C152.431 18.2923 153.29 21.1881 153.25 24.9268L155.25 24.9482C155.293 20.8953 154.361 17.5202 152.354 14.9202C150.345 12.3175 147.346 10.6049 143.474 9.71302L143.026 11.662ZM153.25 24.9204C153.172 29.4719 151.32 32.67 147.7 34.6892L148.675 36.4358C152.972 34.0384 155.161 30.1531 155.25 24.9546L153.25 24.9204ZM147.696 34.6914C143.998 36.7769 140.131 37.3222 136.046 36.3402L135.579 38.2848C140.16 39.3861 144.544 38.7648 148.679 36.4336L147.696 34.6914ZM143.57 19.2006C141.161 17.7837 138.597 17.6475 135.981 18.7684L136.769 20.6066C138.82 19.7275 140.714 19.8413 142.555 20.9244L143.57 19.2006ZM135.375 19.6875V29.125H137.375V19.6875H135.375ZM136.155 30.1006C137.965 30.5077 139.763 30.509 141.537 30.0994L141.088 28.1506C139.612 28.491 138.119 28.4923 136.595 28.1494L136.155 30.1006ZM141.555 30.0951C143.516 29.605 144.937 28.4194 145.73 26.5844L143.895 25.7906C143.355 27.0389 142.443 27.8117 141.07 28.1549L141.555 30.0951ZM145.761 26.5037C146.261 25.0056 146.388 23.5927 146.024 22.319C145.655 21.0259 144.813 19.9953 143.602 19.2202L142.523 20.9048C143.396 21.463 143.887 22.1199 144.101 22.8685C144.32 23.6364 144.281 24.6194 143.864 25.8713L145.761 26.5037ZM178.062 23.375L177.14 23.7607L178.222 26.3504L179.021 23.6596L178.062 23.375ZM181.625 11.375L181.631 10.375L180.88 10.3704L180.666 11.0904L181.625 11.375ZM191.875 11.4375L192.82 11.7637L193.275 10.446L191.881 10.4375L191.875 11.4375ZM179 48.75V49.75H179.713L179.945 49.0762L179 48.75ZM168.938 48.75L167.982 48.4547L167.582 49.75H168.938V48.75ZM173.188 35L174.143 35.2953L174.255 34.9315L174.097 34.5851L173.188 35ZM162.5 11.5625V10.5625H160.945L161.59 11.9774L162.5 11.5625ZM173.125 11.5625L174.048 11.1768L173.791 10.5625H173.125V11.5625ZM179.021 23.6596L182.584 11.6596L180.666 11.0904L177.104 23.0904L179.021 23.6596ZM181.619 12.375L191.869 12.4375L191.881 10.4375L181.631 10.375L181.619 12.375ZM190.93 11.1113L178.055 48.4238L179.945 49.0762L192.82 11.7637L190.93 11.1113ZM179 47.75H168.938V49.75H179V47.75ZM169.893 49.0453L174.143 35.2953L172.232 34.7047L167.982 48.4547L169.893 49.0453ZM174.097 34.5851L163.41 11.1476L161.59 11.9774L172.278 35.4149L174.097 34.5851ZM162.5 12.5625H173.125V10.5625H162.5V12.5625ZM172.202 11.9482L177.14 23.7607L178.985 22.9893L174.048 11.1768L172.202 11.9482ZM257.75 20.0625L256.958 20.6726L258.75 23.0004V20.0625H257.75ZM257.75 0.625L257.739 -0.37494L256.75 -0.364071V0.625H257.75ZM269.125 0.5H270.125V-0.511049L269.114 -0.49994L269.125 0.5ZM269.125 38.3125V39.3125H270.125V38.3125H269.125ZM259 38.3125L258.238 38.9597L258.537 39.3125H259V38.3125ZM244.938 21.75L245.7 21.1028L243.938 19.0272V21.75H244.938ZM244.938 38.3125V39.3125H245.938V38.3125H244.938ZM233.75 38.3125H232.75V39.3125H233.75V38.3125ZM233.75 0.5V-0.5H232.75V0.5H233.75ZM242.688 0.5L243.48 -0.110078L243.18 -0.5H242.688V0.5ZM258.75 20.0625V0.625H256.75V20.0625H258.75ZM257.761 1.62494L269.136 1.49994L269.114 -0.49994L257.739 -0.37494L257.761 1.62494ZM268.125 0.5V38.3125H270.125V0.5H268.125ZM269.125 37.3125H259V39.3125H269.125V37.3125ZM259.762 37.6653L245.7 21.1028L244.175 22.3972L258.238 38.9597L259.762 37.6653ZM243.938 21.75V38.3125H245.938V21.75H243.938ZM244.938 37.3125H233.75V39.3125H244.938V37.3125ZM234.75 38.3125V0.5H232.75V38.3125H234.75ZM233.75 1.5H242.688V-0.5H233.75V1.5ZM241.895 1.11008L256.958 20.6726L258.542 19.4524L243.48 -0.110078L241.895 1.11008ZM295.438 8.8125L295.375 9.81052L295.397 9.81195L295.42 9.81235L295.438 8.8125ZM306.188 14.4375L305.353 14.9878L305.357 14.9944L306.188 14.4375ZM309 26.625L309.073 27.6223L309.886 27.5627L309.992 26.7547L309 26.625ZM290.25 28L290.177 27.0027L288.836 27.101L289.316 28.3567L290.25 28ZM295.438 31.8125L295.341 32.8079L295.364 32.8101L295.388 32.8113L295.438 31.8125ZM302.5 30.1875L303.343 29.6501L302.841 28.8612L302.02 29.3102L302.5 30.1875ZM306.562 36.5625L307.11 37.3995L307.937 36.8586L307.406 36.0251L306.562 36.5625ZM295.812 39.75L295.791 40.7498L295.802 40.75H295.812V39.75ZM280.25 25.1875L279.253 25.2614L279.253 25.2662L280.25 25.1875ZM284.125 13.4375L284.878 14.096L284.882 14.0914L284.125 13.4375ZM289.688 21.3125L288.697 21.1749L288.528 22.3905L289.753 22.3104L289.688 21.3125ZM300.188 20.625L300.253 21.6229L301.392 21.5483L301.168 20.4289L300.188 20.625ZM294.875 16.375L294.847 15.3754L294.813 15.3763L294.78 15.3796L294.875 16.375ZM295.42 9.81235C299.872 9.89045 303.134 11.6223 305.353 14.9878L307.022 13.8872C304.407 9.91941 300.503 7.90122 295.455 7.81265L295.42 9.81235ZM305.357 14.9944C307.677 18.4552 308.561 22.2728 308.008 26.4953L309.992 26.7547C310.606 22.0605 309.614 17.7531 307.018 13.8806L305.357 14.9944ZM308.927 25.6277L290.177 27.0027L290.323 28.9973L309.073 27.6223L308.927 25.6277ZM289.316 28.3567C289.812 29.6556 290.57 30.7129 291.611 31.4777C292.648 32.2401 293.908 32.6691 295.341 32.8079L295.534 30.8171C294.384 30.7059 293.487 30.3744 292.795 29.8661C292.107 29.36 291.563 28.6361 291.184 27.6433L289.316 28.3567ZM295.388 32.8113C298.073 32.9455 300.611 32.3612 302.98 31.0648L302.02 29.3102C299.973 30.4304 297.802 30.9295 295.487 30.8137L295.388 32.8113ZM301.657 30.7249L305.719 37.0999L307.406 36.0251L303.343 29.6501L301.657 30.7249ZM306.015 35.7255C302.929 37.7432 299.537 38.75 295.812 38.75V40.75C299.922 40.75 303.696 39.6318 307.11 37.3995L306.015 35.7255ZM295.834 38.7502C291.179 38.6495 287.745 37.4298 285.386 35.2229C283.029 33.0174 281.609 29.6964 281.247 25.1088L279.253 25.2662C279.641 30.1786 281.189 34.0346 284.02 36.6833C286.849 39.3306 290.821 40.6422 295.791 40.7498L295.834 38.7502ZM281.247 25.1136C280.933 20.875 282.141 17.2236 284.878 14.096L283.372 12.779C280.276 16.3181 278.9 20.5 279.253 25.2614L281.247 25.1136ZM284.882 14.0914C287.585 10.9634 291.047 9.53763 295.375 9.81052L295.5 7.81448C290.578 7.50404 286.499 9.16158 283.368 12.7836L284.882 14.0914ZM289.753 22.3104L300.253 21.6229L300.122 19.6271L289.622 20.3146L289.753 22.3104ZM301.168 20.4289C300.845 18.8127 300.166 17.49 299.047 16.5941C297.926 15.6978 296.489 15.3291 294.847 15.3754L294.903 17.3746C296.219 17.3375 297.147 17.6356 297.797 18.1559C298.448 18.6767 298.947 19.5207 299.207 20.8211L301.168 20.4289ZM294.78 15.3796C293.099 15.5407 291.675 16.0879 290.607 17.1038C289.539 18.1205 288.928 19.5122 288.697 21.1749L290.678 21.4501C290.864 20.1128 291.325 19.1816 291.986 18.5525C292.648 17.9225 293.609 17.501 294.97 17.3704L294.78 15.3796ZM343.562 22.25L342.62 22.5849L343.781 25.8494L344.538 22.4687L343.562 22.25ZM346 11.375V10.375H345.199L345.024 11.1563L346 11.375ZM355.625 11.375L356.584 11.6568L356.961 10.375H355.625V11.375ZM347.75 38.1875V39.1875H348.499L348.709 38.4693L347.75 38.1875ZM339.625 38.1875L338.668 38.4761L338.882 39.1875H339.625V38.1875ZM336.875 29.0625L337.832 28.7739L336.849 25.512L335.913 28.7878L336.875 29.0625ZM334.25 38.25L334.243 39.25L335.003 39.2554L335.212 38.5247L334.25 38.25ZM325.5 38.1875L324.531 38.4353L324.722 39.182L325.493 39.1875L325.5 38.1875ZM318.625 11.3125L318.618 10.3125L317.339 10.3211L317.656 11.5603L318.625 11.3125ZM327.938 11.25L328.91 11.0173L328.725 10.2447L327.931 10.25L327.938 11.25ZM330.375 21.4375L329.402 21.6702L330.166 24.8624L331.312 21.7866L330.375 21.4375ZM333.938 11.875V10.875H333.243L333 11.5259L333.938 11.875ZM339.875 11.875L340.817 11.5401L340.581 10.875H339.875V11.875ZM344.538 22.4687L346.976 11.5937L345.024 11.1563L342.587 22.0313L344.538 22.4687ZM346 12.375H355.625V10.375H346V12.375ZM354.666 11.0932L346.791 37.9057L348.709 38.4693L356.584 11.6568L354.666 11.0932ZM347.75 37.1875H339.625V39.1875H347.75V37.1875ZM340.582 37.8989L337.832 28.7739L335.918 29.3511L338.668 38.4761L340.582 37.8989ZM335.913 28.7878L333.288 37.9753L335.212 38.5247L337.837 29.3372L335.913 28.7878ZM334.257 37.25L325.507 37.1875L325.493 39.1875L334.243 39.25L334.257 37.25ZM326.469 37.9397L319.594 11.0647L317.656 11.5603L324.531 38.4353L326.469 37.9397ZM318.632 12.3125L327.944 12.25L327.931 10.25L318.618 10.3125L318.632 12.3125ZM326.965 11.4827L329.402 21.6702L331.348 21.2048L328.91 11.0173L326.965 11.4827ZM331.312 21.7866L334.875 12.2241L333 11.5259L329.438 21.0884L331.312 21.7866ZM333.938 12.875H339.875V10.875H333.938V12.875ZM338.933 12.2099L342.62 22.5849L344.505 21.9151L340.817 11.5401L338.933 12.2099ZM417.062 11.625L416.205 12.1395L417.128 13.6779L417.951 12.0838L417.062 11.625ZM423 0.125L423.01 -0.874946L422.394 -0.881332L422.111 -0.333766L423 0.125ZM435.062 0.25L435.956 0.699209L436.676 -0.733331L435.073 -0.749946L435.062 0.25ZM423.812 22.625L422.919 22.1758L422.812 22.3878V22.625H423.812ZM423.812 38.25V39.25H424.812V38.25H423.812ZM411.75 38.25L410.75 38.246L410.746 39.25H411.75V38.25ZM411.812 22.8125L412.812 22.8165L412.814 22.5226L412.656 22.2747L411.812 22.8125ZM397.5 0.375V-0.625H395.676L396.657 0.912787L397.5 0.375ZM410.312 0.375L411.17 -0.139496L410.879 -0.625H410.312V0.375ZM417.951 12.0838L423.889 0.583766L422.111 -0.333766L416.174 11.1662L417.951 12.0838ZM422.99 1.12495L435.052 1.24995L435.073 -0.749946L423.01 -0.874946L422.99 1.12495ZM434.169 -0.199209L422.919 22.1758L424.706 23.0742L435.956 0.699209L434.169 -0.199209ZM422.812 22.625V38.25H424.812V22.625H422.812ZM423.812 37.25H411.75V39.25H423.812V37.25ZM412.75 38.254L412.812 22.8165L410.813 22.8085L410.75 38.246L412.75 38.254ZM412.656 22.2747L398.343 -0.162787L396.657 0.912787L410.969 23.3503L412.656 22.2747ZM397.5 1.375H410.312V-0.625H397.5V1.375ZM409.455 0.889496L416.205 12.1395L417.92 11.1105L411.17 -0.139496L409.455 0.889496ZM454.975 8.8125L454.912 9.81052L454.935 9.81195L454.957 9.81235L454.975 8.8125ZM465.725 14.4375L464.89 14.9878L464.894 14.9944L465.725 14.4375ZM468.538 26.625L468.611 27.6223L469.423 27.5627L469.529 26.7547L468.538 26.625ZM449.788 28L449.714 27.0027L448.374 27.101L448.853 28.3567L449.788 28ZM454.975 31.8125L454.879 32.8079L454.902 32.8101L454.925 32.8113L454.975 31.8125ZM462.038 30.1875L462.881 29.6501L462.378 28.8612L461.557 29.3102L462.038 30.1875ZM466.1 36.5625L466.647 37.3995L467.474 36.8586L466.943 36.0251L466.1 36.5625ZM455.35 39.75L455.328 40.7498L455.339 40.75H455.35V39.75ZM439.788 25.1875L438.79 25.2614L438.791 25.2662L439.788 25.1875ZM443.663 13.4375L444.415 14.096L444.419 14.0914L443.663 13.4375ZM449.225 21.3125L448.235 21.1749L448.066 22.3905L449.29 22.3104L449.225 21.3125ZM459.725 20.625L459.79 21.6229L460.929 21.5483L460.706 20.4289L459.725 20.625ZM454.413 16.375L454.384 15.3754L454.351 15.3763L454.317 15.3796L454.413 16.375ZM454.957 9.81235C459.409 9.89045 462.672 11.6223 464.89 14.9878L466.56 13.8872C463.945 9.91941 460.041 7.90122 454.993 7.81265L454.957 9.81235ZM464.894 14.9944C467.215 18.4552 468.098 22.2728 467.546 26.4953L469.529 26.7547C470.143 22.0605 469.152 17.7531 466.556 13.8806L464.894 14.9944ZM468.464 25.6277L449.714 27.0027L449.861 28.9973L468.611 27.6223L468.464 25.6277ZM448.853 28.3567C449.349 29.6556 450.108 30.7129 451.148 31.4777C452.186 32.2401 453.445 32.6691 454.879 32.8079L455.071 30.8171C453.921 30.7059 453.025 30.3744 452.333 29.8661C451.644 29.36 451.101 28.6361 450.722 27.6433L448.853 28.3567ZM454.925 32.8113C457.611 32.9455 460.148 32.3612 462.518 31.0648L461.557 29.3102C459.51 30.4304 457.339 30.9295 455.025 30.8137L454.925 32.8113ZM461.194 30.7249L465.257 37.0999L466.943 36.0251L462.881 29.6501L461.194 30.7249ZM465.553 35.7255C462.467 37.7432 459.074 38.75 455.35 38.75V40.75C459.459 40.75 463.233 39.6318 466.647 37.3995L465.553 35.7255ZM455.372 38.7502C450.717 38.6495 447.282 37.4298 444.924 35.2229C442.567 33.0174 441.147 29.6964 440.784 25.1088L438.791 25.2662C439.178 30.1786 440.727 34.0346 443.557 36.6833C446.386 39.3306 450.358 40.6422 455.328 40.7498L455.372 38.7502ZM440.785 25.1136C440.471 20.875 441.678 17.2236 444.415 14.096L442.91 12.779C439.813 16.3181 438.438 20.5 438.79 25.2614L440.785 25.1136ZM444.419 14.0914C447.122 10.9634 450.585 9.53763 454.912 9.81052L455.038 7.81448C450.115 7.50404 446.036 9.16158 442.906 12.7836L444.419 14.0914ZM449.29 22.3104L459.79 21.6229L459.66 19.6271L449.16 20.3146L449.29 22.3104ZM460.706 20.4289C460.382 18.8127 459.704 17.49 458.584 16.5941C457.464 15.6978 456.027 15.3291 454.384 15.3754L454.441 17.3746C455.757 17.3375 456.684 17.6356 457.335 18.1559C457.986 18.6767 458.484 19.5207 458.744 20.8211L460.706 20.4289ZM454.317 15.3796C452.637 15.5407 451.212 16.0879 450.145 17.1038C449.077 18.1205 448.465 19.5122 448.235 21.1749L450.215 21.4501C450.401 20.1128 450.863 19.1816 451.524 18.5525C452.186 17.9225 453.147 17.501 454.508 17.3704L454.317 15.3796ZM498.85 9.75L498.318 10.5965L498.324 10.6003L498.85 9.75ZM503.163 17.0625L504.162 17.0221L504.161 17.0039L504.16 16.9858L503.163 17.0625ZM504.288 28.0625L503.304 28.2414L503.305 28.2488L503.306 28.2561L504.288 28.0625ZM507.663 36.0625L508.174 36.9217L509.13 36.3525L508.463 35.4625L507.663 36.0625ZM499.475 40.9375L498.72 41.5937L499.269 42.2242L499.987 41.7967L499.475 40.9375ZM497.288 37.875L498.154 37.3753L497.594 36.405L496.693 37.0708L497.288 37.875ZM481.288 37.3125L480.627 38.0632L480.635 38.0702L480.643 38.077L481.288 37.3125ZM483.475 20.9375L483.028 20.0431L483.024 20.0452L483.475 20.9375ZM494.35 20.25L494.008 21.1898L495.39 21.6924L495.35 20.2222L494.35 20.25ZM492.85 16.625L492.143 17.3321L492.151 17.34L492.159 17.3476L492.85 16.625ZM488.913 15.375V16.375H488.937L488.961 16.3738L488.913 15.375ZM482.538 17L481.582 17.2935L481.943 18.4716L483.022 17.875L482.538 17ZM480.35 9.875L479.834 9.01862L479.165 9.42189L479.394 10.1685L480.35 9.875ZM492.85 32.125L493.443 32.9301L493.457 32.9202L493.47 32.9099L492.85 32.125ZM494.475 29.625L495.438 29.8946L495.511 29.6342L495.443 29.3726L494.475 29.625ZM492.975 27.1875L492.288 27.9145L492.299 27.9249L492.311 27.9349L492.975 27.1875ZM487.413 27.0625L486.772 26.2943L486.761 26.3033L486.751 26.3127L487.413 27.0625ZM487.288 32L486.558 32.6839L486.569 32.6957L486.58 32.7071L487.288 32ZM489.788 8.3125C493.083 8.3125 495.914 9.08466 498.318 10.5965L499.382 8.90354C496.619 7.16534 493.408 6.3125 489.788 6.3125V8.3125ZM498.324 10.6003C500.66 12.0466 501.938 14.1866 502.165 17.1392L504.16 16.9858C503.887 13.4384 502.29 10.7034 499.376 8.89973L498.324 10.6003ZM502.163 17.1029C502.331 21.2627 502.71 24.9771 503.304 28.2414L505.271 27.8836C504.698 24.7312 504.327 21.1123 504.162 17.0221L502.163 17.1029ZM503.306 28.2561C503.955 31.5422 505.132 34.3548 506.863 36.6625L508.463 35.4625C506.943 33.4369 505.87 30.9162 505.269 27.8689L503.306 28.2561ZM507.151 35.2033L498.963 40.0783L499.987 41.7967L508.174 36.9217L507.151 35.2033ZM500.23 40.2813C499.438 39.3707 498.746 38.4021 498.154 37.3753L496.421 38.3747C497.079 39.5145 497.846 40.5876 498.72 41.5937L500.23 40.2813ZM496.693 37.0708C495.001 38.3213 492.65 39 489.538 39V41C492.925 41 495.74 40.262 497.882 38.6792L496.693 37.0708ZM489.538 39C486.346 39 483.84 38.1568 481.932 36.548L480.643 38.077C482.985 40.0515 485.979 41 489.538 41V39ZM481.948 36.5618C480.118 34.9514 479.163 32.7043 479.163 29.6875H477.163C477.163 33.1707 478.29 36.007 480.627 38.0632L481.948 36.5618ZM479.163 29.6875C479.163 27.8156 479.571 26.2628 480.345 24.9877C481.119 23.7137 482.295 22.6553 483.926 21.8298L483.024 20.0452C481.114 21.0113 479.633 22.3072 478.636 23.9498C477.639 25.5913 477.163 27.5177 477.163 29.6875H479.163ZM483.922 21.8319C487.267 20.1593 490.607 19.9531 494.008 21.1898L494.692 19.3102C490.759 17.8802 486.849 18.1323 483.028 20.0431L483.922 21.8319ZM495.35 20.2222C495.302 18.4967 494.715 17.0255 493.541 15.9024L492.159 17.3476C492.901 18.0578 493.315 19.0033 493.35 20.2778L495.35 20.2222ZM493.557 15.9179C492.382 14.7432 490.759 14.2837 488.864 14.3762L488.961 16.3738C490.483 16.2996 491.484 16.6734 492.143 17.3321L493.557 15.9179ZM488.913 14.375C486.456 14.375 484.164 14.9576 482.053 16.125L483.022 17.875C484.828 16.8757 486.786 16.375 488.913 16.375V14.375ZM483.493 16.7065L481.306 9.5815L479.394 10.1685L481.582 17.2935L483.493 16.7065ZM480.866 10.7314C483.537 9.12136 486.503 8.3125 489.788 8.3125V6.3125C486.156 6.3125 482.83 7.21197 479.834 9.01862L480.866 10.7314ZM489.913 34C491.252 34 492.449 33.6623 493.443 32.9301L492.257 31.3199C491.667 31.7543 490.907 32 489.913 32V34ZM493.47 32.9099C494.44 32.1441 495.094 31.1244 495.438 29.8946L493.512 29.3554C493.273 30.2089 492.844 30.8559 492.23 31.3401L493.47 32.9099ZM495.443 29.3726C495.142 28.2202 494.535 27.2363 493.639 26.4401L492.311 27.9349C492.915 28.472 493.308 29.1131 493.507 29.8774L495.443 29.3726ZM493.662 26.4605C492.716 25.5674 491.55 25.125 490.225 25.125V27.125C491.067 27.125 491.734 27.391 492.288 27.9145L493.662 26.4605ZM490.225 25.125C488.904 25.125 487.729 25.4971 486.772 26.2943L488.053 27.8307C488.596 27.3779 489.296 27.125 490.225 27.125V25.125ZM486.751 26.3127C485.804 27.1483 485.35 28.2669 485.35 29.5625H487.35C487.35 28.7747 487.605 28.2267 488.074 27.8123L486.751 26.3127ZM485.35 29.5625C485.35 30.7613 485.75 31.8222 486.558 32.6839L488.017 31.3161C487.575 30.8445 487.35 30.2804 487.35 29.5625H485.35ZM486.58 32.7071C487.463 33.5896 488.607 34 489.913 34V32C489.052 32 488.445 31.7437 487.995 31.2929L486.58 32.7071ZM527.412 14H526.412V16.2389L528.08 14.7447L527.412 14ZM538.85 10.25L539.85 10.2358L539.837 9.33021L538.935 9.25359L538.85 10.25ZM538.975 19.0625L538.883 20.0582L539.991 20.1608L539.975 19.0483L538.975 19.0625ZM532.537 20.375L532.069 19.4916L532.061 19.4957L532.537 20.375ZM528.225 25.1875L527.3 24.8068L527.23 24.9773L527.225 25.1616L528.225 25.1875ZM527.85 39.6875V40.6875H528.824L528.85 39.7134L527.85 39.6875ZM517.975 39.6875L516.975 39.6939L516.981 40.6875H517.975V39.6875ZM517.787 10.5L517.781 9.50002L516.781 9.50651L516.787 10.5064L517.787 10.5ZM527.412 10.4375H528.412V9.43099L527.406 9.43752L527.412 10.4375ZM528.08 14.7447C531.076 12.0596 534.614 10.894 538.765 11.2464L538.935 9.25359C534.252 8.85603 530.165 10.1904 526.745 13.2553L528.08 14.7447ZM537.85 10.2642L537.975 19.0767L539.975 19.0483L539.85 10.2358L537.85 10.2642ZM539.067 18.0668C536.619 17.84 534.278 18.3192 532.069 19.4917L533.006 21.2583C534.88 20.2641 536.831 19.8683 538.883 20.0582L539.067 18.0668ZM532.061 19.4957C529.857 20.6899 528.262 22.4713 527.3 24.8068L529.15 25.5682C529.938 23.6537 531.218 22.2268 533.014 21.2543L532.061 19.4957ZM527.225 25.1616L526.85 39.6616L528.85 39.7134L529.225 25.2134L527.225 25.1616ZM527.85 38.6875H517.975V40.6875H527.85V38.6875ZM518.975 39.6811L518.787 10.4936L516.787 10.5064L516.975 39.6939L518.975 39.6811ZM517.794 11.5L527.419 11.4375L527.406 9.43752L517.781 9.50002L517.794 11.5ZM526.412 10.4375V14H528.412V10.4375H526.412Z" fill="black" mask="url(#path-1-outside-1_244_55450)"/>
</g>
<defs>
<filter id="filter0_d_244_55450" x="0.25" y="0.125" width="542.725" height="56.6875" filterUnits="userSpaceOnUse" color-interpolation-filters="sRGB">
<feFlood flood-opacity="0" result="BackgroundImageFix"/>
<feColorMatrix in="SourceAlpha" type="matrix" values="0 0 0 0 0 0 0 0 0 0 0 0 0 0 0 0 0 0 127 0" result="hardAlpha"/>
<feOffset dy="4"/>
<feGaussianBlur stdDeviation="2"/>
<feComposite in2="hardAlpha" operator="out"/>
<feColorMatrix type="matrix" values="0 0 0 0 0 0 0 0 0 0 0 0 0 0 0 0 0 0 0.25 0"/>
<feBlend mode="normal" in2="BackgroundImageFix" result="effect1_dropShadow_244_55450"/>
<feBlend mode="normal" in="SourceGraphic" in2="effect1_dropShadow_244_55450" result="shape"/>
</filter>
</defs>
</svg>
