<svg width="200" height="185" viewBox="0 0 200 185" fill="none" xmlns="http://www.w3.org/2000/svg">
<ellipse cx="98.0854" cy="95.1696" rx="60" ry="59.9128" fill="url(#paint0_linear_211_46650)"/>
<path d="M51.5577 36.6983C50.4034 36.8123 49.1274 36.6747 47.8027 36.2934C46.478 35.9121 45.1305 35.2945 43.8371 34.476C42.5438 33.6574 41.3299 32.6538 40.2647 31.5226C39.1996 30.3914 38.3041 29.1547 37.6294 27.883C36.9546 26.6114 36.5138 25.3297 36.3322 24.1112C36.1506 22.8928 36.2317 21.7613 36.5708 20.7815C36.91 19.8017 37.5005 18.9927 38.3088 18.4007C39.1171 17.8088 40.1272 17.4454 41.2816 17.3314L46.4197 27.0148L51.5577 36.6983Z" fill="url(#paint1_linear_211_46650)"/>
<path d="M23.8075 75.3611C22.7887 75.915 21.5598 76.2844 20.191 76.4483C18.8221 76.6121 17.3402 76.5673 15.8297 76.3162C14.3192 76.0651 12.8097 75.6128 11.3875 74.985C9.96535 74.3573 8.65825 73.5663 7.54088 72.6574C6.4235 71.7485 5.51773 70.7394 4.87528 69.6877C4.23283 68.636 3.86628 67.5624 3.79657 66.528C3.72685 65.4937 3.95534 64.5189 4.46897 63.6594C4.98261 62.7998 5.77133 62.0724 6.79012 61.5185L15.2988 68.4398L23.8075 75.3611Z" fill="url(#paint2_linear_211_46650)"/>
<path d="M24.7482 91.9585C24.3112 93.0315 23.5946 94.0946 22.6394 95.0872C21.6842 96.0799 20.509 96.9825 19.1809 97.7437C17.8529 98.5049 16.3979 99.1096 14.8992 99.5234C13.4005 99.9373 11.8874 100.152 10.4462 100.155C9.00495 100.159 7.66393 99.951 6.49966 99.5436C5.33538 99.1362 4.37065 98.5373 3.66055 97.781C2.95045 97.0248 2.50889 96.126 2.36107 95.136C2.21325 94.146 2.36207 93.0842 2.79904 92.0113L13.7736 91.9849L24.7482 91.9585Z" fill="url(#paint3_linear_211_46650)"/>
<path d="M33.1946 131.81C33.5463 132.914 33.6768 134.189 33.5786 135.562C33.4805 136.935 33.1557 138.38 32.6227 139.813C32.0897 141.247 31.3591 142.641 30.4724 143.916C29.5857 145.192 28.5604 146.324 27.455 147.247C26.3496 148.17 25.1857 148.867 24.0299 149.298C22.8741 149.729 21.7489 149.885 20.7186 149.757C19.6883 149.63 18.773 149.221 18.0251 148.555C17.2772 147.888 16.7113 146.977 16.3596 145.873L24.7771 138.842L33.1946 131.81Z" fill="url(#paint4_linear_211_46650)"/>
<path d="M58.9133 154.108C59.7705 154.888 60.5219 155.927 61.1245 157.166C61.7271 158.404 62.1691 159.817 62.4253 161.324C62.6815 162.832 62.7469 164.404 62.6177 165.952C62.4885 167.499 62.1672 168.991 61.6723 170.342C61.1773 171.694 60.5184 172.879 59.7331 173.829C58.9478 174.779 58.0515 175.476 57.0953 175.88C56.1392 176.284 55.1419 176.387 54.1605 176.183C53.1791 175.979 52.2328 175.473 51.3756 174.692L55.1444 164.4L58.9133 154.108Z" fill="url(#paint5_linear_211_46650)"/>
<path d="M96.4036 161.231C97.3934 161.231 98.3736 161.539 99.2881 162.136C100.203 162.733 101.034 163.609 101.734 164.712C102.433 165.816 102.989 167.126 103.368 168.568C103.746 170.01 103.941 171.555 103.941 173.116C103.941 174.676 103.746 176.222 103.368 177.664C102.989 179.105 102.433 180.416 101.734 181.519C101.034 182.623 100.203 183.498 99.2881 184.095C98.3736 184.693 97.3934 185 96.4036 185L96.4036 173.116V161.231Z" fill="url(#paint6_linear_211_46650)"/>
<path d="M139.736 154.894C140.856 154.593 142.137 154.521 143.506 154.681C144.876 154.84 146.306 155.23 147.716 155.826C149.126 156.422 150.488 157.214 151.724 158.156C152.96 159.098 154.046 160.172 154.92 161.316C155.794 162.46 156.439 163.653 156.818 164.825C157.197 165.998 157.302 167.127 157.128 168.149C156.954 169.171 156.504 170.066 155.803 170.782C155.103 171.498 154.166 172.021 153.046 172.322L146.391 163.608L139.736 154.894Z" fill="url(#paint7_linear_211_46650)"/>
<path d="M167.72 131.832C168.691 131.198 169.887 130.732 171.238 130.458C172.589 130.185 174.07 130.111 175.596 130.241C177.121 130.37 178.662 130.7 180.13 131.212C181.599 131.723 182.965 132.407 184.152 133.223C185.339 134.04 186.323 134.973 187.047 135.97C187.772 136.967 188.224 138.008 188.377 139.033C188.529 140.058 188.38 141.048 187.937 141.946C187.494 142.844 186.766 143.632 185.795 144.266L176.758 138.049L167.72 131.832Z" fill="url(#paint8_linear_211_46650)"/>
<path d="M177.29 87.9107C178.031 87.0194 179.036 86.2217 180.246 85.5632C181.457 84.9047 182.85 84.3982 184.346 84.0727C185.843 83.7472 187.413 83.6091 188.966 83.6661C190.52 83.7232 192.028 83.9744 193.403 84.4054C194.778 84.8363 195.994 85.4386 196.981 86.1779C197.967 86.9171 198.706 87.7788 199.155 88.7138C199.603 89.6488 199.752 90.6387 199.594 91.6271C199.436 92.6155 198.973 93.5829 198.232 94.4742L187.761 91.1924L177.29 87.9107Z" fill="url(#paint9_linear_211_46650)"/>
<path d="M169.421 59.0881C169.088 57.9786 168.979 56.7018 169.1 55.3305C169.221 53.9591 169.57 52.5202 170.127 51.0958C170.683 49.6715 171.437 48.2895 172.345 47.0289C173.253 45.7684 174.297 44.6538 175.418 43.7489C176.538 42.8441 177.714 42.1666 178.877 41.7552C180.039 41.3438 181.167 41.2065 182.195 41.3512C183.223 41.4959 184.131 41.9197 184.868 42.5985C185.605 43.2772 186.155 44.1976 186.489 45.3071L177.955 52.1976L169.421 59.0881Z" fill="url(#paint10_linear_211_46650)"/>
<path d="M136.456 31.7919C135.981 30.7355 135.705 29.4839 135.645 28.1086C135.585 26.7332 135.743 25.2611 136.108 23.7762C136.473 22.2913 137.04 20.8227 137.774 19.4543C138.509 18.0859 139.398 16.8445 140.391 15.801C141.383 14.7574 142.459 13.9321 143.558 13.3723C144.657 12.8124 145.757 12.5289 146.795 12.538C147.833 12.5471 148.79 12.8486 149.609 13.4252C150.428 14.0019 151.095 14.8424 151.57 15.8988L144.013 23.8453L136.456 31.7919Z" fill="url(#paint11_linear_211_46650)"/>
<path d="M99.2582 24.4864C98.2124 23.9851 97.1936 23.2058 96.2599 22.1929C95.3263 21.1801 94.496 19.9535 93.8165 18.5832C93.137 17.2129 92.6217 15.7258 92.2999 14.2067C91.978 12.6876 91.8561 11.1664 91.9409 9.72974C92.0257 8.29313 92.3157 6.96931 92.7943 5.83388C93.2729 4.69844 93.9307 3.77362 94.7301 3.11222C95.5295 2.45082 96.455 2.06579 97.4536 1.97912C98.4522 1.89245 99.5044 2.10583 100.55 2.60708L99.9042 13.5467L99.2582 24.4864Z" fill="url(#paint12_linear_211_46650)"/>
<defs>
<linearGradient id="paint0_linear_211_46650" x1="75.7325" y1="42.7753" x2="117.04" y2="147.135" gradientUnits="userSpaceOnUse">
<stop stop-color="#A70F09"/>
<stop offset="1" stop-color="#F2910D"/>
</linearGradient>
<linearGradient id="paint1_linear_211_46650" x1="42.8817" y1="23.834" x2="44.0262" y2="34.9944" gradientUnits="userSpaceOnUse">
<stop stop-color="#A70F09"/>
<stop offset="1" stop-color="#F2910D"/>
</linearGradient>
<linearGradient id="paint2_linear_211_46650" x1="10.7997" y1="66.8857" x2="16.1968" y2="76.7252" gradientUnits="userSpaceOnUse">
<stop stop-color="#A70F09"/>
<stop offset="1" stop-color="#F2910D"/>
</linearGradient>
<linearGradient id="paint3_linear_211_46650" x1="9.30641" y1="93.6281" x2="19.7254" y2="97.8257" gradientUnits="userSpaceOnUse">
<stop stop-color="#A70F09"/>
<stop offset="1" stop-color="#F2910D"/>
</linearGradient>
<linearGradient id="paint4_linear_211_46650" x1="22.3968" y1="142.959" x2="33.0873" y2="139.508" gradientUnits="userSpaceOnUse">
<stop stop-color="#A70F09"/>
<stop offset="1" stop-color="#F2910D"/>
</linearGradient>
<linearGradient id="paint5_linear_211_46650" x1="55.1444" y1="169.154" x2="62.6701" y2="160.824" gradientUnits="userSpaceOnUse">
<stop stop-color="#A70F09"/>
<stop offset="1" stop-color="#F2910D"/>
</linearGradient>
<linearGradient id="paint6_linear_211_46650" x1="96.4036" y1="177.869" x2="103.929" y2="169.539" gradientUnits="userSpaceOnUse">
<stop stop-color="#A70F09"/>
<stop offset="1" stop-color="#F2910D"/>
</linearGradient>
<linearGradient id="paint7_linear_211_46650" x1="150.402" y1="166.168" x2="147.45" y2="155.344" gradientUnits="userSpaceOnUse">
<stop stop-color="#A70F09"/>
<stop offset="1" stop-color="#F2910D"/>
</linearGradient>
<linearGradient id="paint8_linear_211_46650" x1="181.367" y1="139.238" x2="175.198" y2="129.862" gradientUnits="userSpaceOnUse">
<stop stop-color="#A70F09"/>
<stop offset="1" stop-color="#F2910D"/>
</linearGradient>
<linearGradient id="paint9_linear_211_46650" x1="192.517" y1="90.9719" x2="183.855" y2="83.8268" gradientUnits="userSpaceOnUse">
<stop stop-color="#A70F09"/>
<stop offset="1" stop-color="#F2910D"/>
</linearGradient>
<linearGradient id="paint10_linear_211_46650" x1="180.404" y1="48.1209" x2="169.657" y2="51.3923" gradientUnits="userSpaceOnUse">
<stop stop-color="#A70F09"/>
<stop offset="1" stop-color="#F2910D"/>
</linearGradient>
<linearGradient id="paint11_linear_211_46650" x1="145.907" y1="19.4837" x2="135.683" y2="24.1344" gradientUnits="userSpaceOnUse">
<stop stop-color="#A70F09"/>
<stop offset="1" stop-color="#F2910D"/>
</linearGradient>
<linearGradient id="paint12_linear_211_46650" x1="98.5353" y1="8.99372" x2="93.7229" y2="19.1311" gradientUnits="userSpaceOnUse">
<stop stop-color="#A70F09"/>
<stop offset="1" stop-color="#F2910D"/>
</linearGradient>
</defs>
</svg>
