<svg width="120" height="39" viewBox="0 0 120 39" fill="none" xmlns="http://www.w3.org/2000/svg">
<path d="M119.934 6.03958C119.934 3.13839 117.327 0.0380859 114.748 0.0380859C99.8785 0.0380859 85.0189 0.057048 70.1687 0.0949722C47.8934 0.0949722 25.618 0.948266 25.5897 0.948266C19.6383 0.948266 19.4399 11.3869 25.5897 11.3869C44.1808 11.3869 44.1808 11.8989 62.7436 11.8989C66.2861 11.8989 69.2901 14.5725 69.2901 18.5546C69.2901 22.5366 66.3144 26.7177 62.7436 26.7177C34.5168 26.7177 34.5168 26.5186 6.29012 26.5186C3.28607 26.5186 0.933838 28.4812 0.933838 31.8375C0.933838 35.1938 3.28607 37.2132 6.29012 37.2132C29.6707 37.2132 29.6707 37.583 53.0229 37.583C76.3751 37.583 76.4035 38.0381 99.7557 38.0381C102.76 38.0381 104.574 35.1653 104.574 31.809C104.574 28.4528 102.76 24.9827 99.7557 24.9827C91.8205 24.9827 91.8205 24.7267 83.8853 24.7267C80.3427 24.7267 77.3104 22.5081 77.3104 18.5261C77.3104 14.5441 80.3427 10.6189 83.8853 10.6189C99.3306 10.6189 99.3306 11.6144 114.748 11.6144C117.355 11.6144 119.934 8.96922 119.934 6.03958Z" fill="white"/>
<g style="mix-blend-mode:color-burn" opacity="0.6">
<path d="M119.934 6.03958C119.934 3.13839 117.327 0.0380859 114.748 0.0380859C99.8785 0.0380859 85.0189 0.057048 70.1687 0.0949722C47.8934 0.0949722 25.618 0.948266 25.5897 0.948266C19.6383 0.948266 19.4399 11.3869 25.5897 11.3869C44.1808 11.3869 44.1808 11.8989 62.7436 11.8989C66.2861 11.8989 69.2901 14.5725 69.2901 18.5546C69.2901 22.5366 66.3144 26.7177 62.7436 26.7177C34.5168 26.7177 34.5168 26.5186 6.29012 26.5186C3.28607 26.5186 0.933838 28.4812 0.933838 31.8375C0.933838 35.1938 3.28607 37.2132 6.29012 37.2132C29.6707 37.2132 29.6707 37.583 53.0229 37.583C76.3751 37.583 76.4035 38.0381 99.7557 38.0381C102.76 38.0381 104.574 35.1653 104.574 31.809C104.574 28.4528 102.76 24.9827 99.7557 24.9827C91.8205 24.9827 91.8205 24.7267 83.8853 24.7267C80.3427 24.7267 77.3104 22.5081 77.3104 18.5261C77.3104 14.5441 80.3427 10.6189 83.8853 10.6189C99.3306 10.6189 99.3306 11.6144 114.748 11.6144C117.355 11.6144 119.934 8.96922 119.934 6.03958Z" fill="white"/>
</g>
</svg>
