<svg width="526" height="149" viewBox="0 0 526 149" fill="none" xmlns="http://www.w3.org/2000/svg">
<mask id="path-1-outside-1_290_3" maskUnits="userSpaceOnUse" x="161" y="21" width="57" height="68" fill="black">
<rect fill="white" x="161" y="21" width="57" height="68"/>
<path d="M204.625 60.2188H212.688V74.375H204.344V83.0938L190.469 83L190.188 74.1875L166.188 74.2812V61.4375L188.875 26.1875L204.625 26.2812V60.2188ZM191.219 60.5938V44L181.188 60.5938H191.219Z"/>
</mask>
<path d="M204.625 60.2188H212.688V74.375H204.344V83.0938L190.469 83L190.188 74.1875L166.188 74.2812V61.4375L188.875 26.1875L204.625 26.2812V60.2188ZM191.219 60.5938V44L181.188 60.5938H191.219Z" fill="#DCB051"/>
<path d="M204.625 60.2188H199.625V65.2188H204.625V60.2188ZM212.688 60.2188H217.688V55.2188H212.688V60.2188ZM212.688 74.375V79.375H217.688V74.375H212.688ZM204.344 74.375V69.375H199.344V74.375H204.344ZM204.344 83.0938L204.31 88.0936L209.344 88.1276V83.0938H204.344ZM190.469 83L185.471 83.1595L185.625 87.9674L190.435 87.9999L190.469 83ZM190.188 74.1875L195.185 74.028L195.03 69.1685L190.168 69.1875L190.188 74.1875ZM166.188 74.2812H161.188V79.3008L166.207 79.2812L166.188 74.2812ZM166.188 61.4375L161.983 58.7315L161.188 59.9675V61.4375H166.188ZM188.875 26.1875L188.905 21.1876L186.157 21.1712L184.671 23.4815L188.875 26.1875ZM204.625 26.2812H209.625V21.3109L204.655 21.2813L204.625 26.2812ZM191.219 60.5938V65.5938H196.219V60.5938H191.219ZM191.219 44H196.219V26.0641L186.94 41.4133L191.219 44ZM181.188 60.5938L176.909 58.0071L172.322 65.5938H181.188V60.5938ZM204.625 65.2188H212.688V55.2188H204.625V65.2188ZM207.688 60.2188V74.375H217.688V60.2188H207.688ZM212.688 69.375H204.344V79.375H212.688V69.375ZM199.344 74.375V83.0938H209.344V74.375H199.344ZM204.378 78.0939L190.503 78.0001L190.435 87.9999L204.31 88.0936L204.378 78.0939ZM195.466 82.8405L195.185 74.028L185.19 74.347L185.471 83.1595L195.466 82.8405ZM190.168 69.1875L166.168 69.2813L166.207 79.2812L190.207 79.1875L190.168 69.1875ZM171.188 74.2812V61.4375H161.188V74.2812H171.188ZM170.392 64.1435L193.079 28.8935L184.671 23.4815L161.983 58.7315L170.392 64.1435ZM188.845 31.1874L204.595 31.2812L204.655 21.2813L188.905 21.1876L188.845 31.1874ZM199.625 26.2812V60.2188H209.625V26.2812H199.625ZM196.219 60.5938V44H186.219V60.5938H196.219ZM186.94 41.4133L176.909 58.0071L185.466 63.1804L195.498 46.5867L186.94 41.4133ZM181.188 65.5938H191.219V55.5938H181.188V65.5938Z" fill="white" mask="url(#path-1-outside-1_290_3)"/>
<mask id="path-3-outside-2_290_3" maskUnits="userSpaceOnUse" x="89" y="18" width="58" height="68" fill="black">
<rect fill="white" x="89" y="18" width="58" height="68"/>
<path d="M124.188 66.2188L141.062 66.4062L140.969 80.9375L97.9375 80.6562L97.6562 69.125C100.094 67.375 102.531 65.5625 104.969 63.6875C107.406 61.8125 109.75 59.8438 112 57.7812C114.312 55.6562 116.438 53.4062 118.375 51.0312C120.312 48.5938 121.344 46.1875 121.469 43.8125C121.594 41 120.531 39.3125 118.281 38.75C116.031 38.125 114 38.3438 112.188 39.4062C110.375 40.4062 108.656 41.8125 107.031 43.625L96.3438 35C100.844 27.5 107.875 23.5625 117.438 23.1875C122.875 22.9375 127.656 24.5313 131.781 27.9688C135.969 31.3438 138.094 35.8438 138.156 41.4688C138.031 46.5312 136.625 51.125 133.938 55.25C131.25 59.375 128 63.0312 124.188 66.2188Z"/>
</mask>
<path d="M124.188 66.2188L141.062 66.4062L140.969 80.9375L97.9375 80.6562L97.6562 69.125C100.094 67.375 102.531 65.5625 104.969 63.6875C107.406 61.8125 109.75 59.8438 112 57.7812C114.312 55.6562 116.438 53.4062 118.375 51.0312C120.312 48.5938 121.344 46.1875 121.469 43.8125C121.594 41 120.531 39.3125 118.281 38.75C116.031 38.125 114 38.3438 112.188 39.4062C110.375 40.4062 108.656 41.8125 107.031 43.625L96.3438 35C100.844 27.5 107.875 23.5625 117.438 23.1875C122.875 22.9375 127.656 24.5313 131.781 27.9688C135.969 31.3438 138.094 35.8438 138.156 41.4688C138.031 46.5312 136.625 51.125 133.938 55.25C131.25 59.375 128 63.0312 124.188 66.2188Z" fill="#DCB051"/>
<path d="M124.188 66.2188L120.98 62.3828L110.592 71.068L124.132 71.2184L124.188 66.2188ZM141.062 66.4062L146.062 66.4385L146.095 61.4619L141.118 61.4066L141.062 66.4062ZM140.969 80.9375L140.936 85.9374L145.936 85.9701L145.969 80.9698L140.969 80.9375ZM97.9375 80.6562L92.939 80.7782L93.0572 85.6245L97.9048 85.6561L97.9375 80.6562ZM97.6562 69.125L94.7402 65.0634L92.5933 66.6048L92.6577 69.2469L97.6562 69.125ZM112 57.7812L115.379 61.467L115.383 61.4629L112 57.7812ZM118.375 51.0312L122.249 54.1919L122.269 54.1673L122.289 54.1425L118.375 51.0312ZM121.469 43.8125L126.462 44.0753L126.463 44.0549L126.464 44.0345L121.469 43.8125ZM118.281 38.75L116.943 43.5676L117.006 43.585L117.069 43.6007L118.281 38.75ZM112.188 39.4062L114.603 43.7841L114.66 43.7527L114.716 43.7197L112.188 39.4062ZM107.031 43.625L103.891 47.516L107.585 50.4972L110.754 46.9627L107.031 43.625ZM96.3438 35L92.0563 32.4275L89.8177 36.1585L93.2037 38.891L96.3438 35ZM117.438 23.1875L117.633 28.1837L117.65 28.183L117.667 28.1822L117.438 23.1875ZM131.781 27.9688L128.58 31.8099L128.612 31.8361L128.644 31.8617L131.781 27.9688ZM138.156 41.4688L143.155 41.5922L143.157 41.5027L143.156 41.4132L138.156 41.4688ZM124.132 71.2184L141.007 71.4059L141.118 61.4066L124.243 61.2191L124.132 71.2184ZM136.063 66.374L135.969 80.9052L145.969 80.9698L146.062 66.4385L136.063 66.374ZM141.001 75.9376L97.9702 75.6564L97.9048 85.6561L140.936 85.9374L141.001 75.9376ZM102.936 80.5343L102.655 69.0031L92.6577 69.2469L92.939 80.7782L102.936 80.5343ZM100.572 73.1866C103.056 71.4037 105.537 69.5583 108.017 67.6506L101.92 59.7244C99.5252 61.5667 97.1319 63.3463 94.7402 65.0634L100.572 73.1866ZM108.017 67.6506C110.568 65.6886 113.022 63.6274 115.379 61.467L108.621 54.0955C106.478 56.0601 104.245 57.9364 101.92 59.7244L108.017 67.6506ZM115.383 61.4629C117.867 59.1802 120.157 56.7566 122.249 54.1919L114.501 47.8706C112.718 50.0559 110.758 52.1323 108.617 54.0996L115.383 61.4629ZM122.289 54.1425C124.675 51.1409 126.267 47.7679 126.462 44.0753L116.476 43.5497C116.42 44.6071 115.95 46.0466 114.461 47.92L122.289 54.1425ZM126.464 44.0345C126.554 42.0148 126.252 39.7673 124.997 37.7734C123.667 35.662 121.65 34.4384 119.494 33.8993L117.069 43.6007C117.15 43.621 117.079 43.6156 116.937 43.5189C116.783 43.4144 116.638 43.2656 116.534 43.1016C116.438 42.9487 116.431 42.8669 116.445 42.9338C116.461 43.0089 116.49 43.2144 116.474 43.5905L126.464 44.0345ZM119.619 33.9324C116.225 32.9896 112.775 33.2661 109.659 35.0928L114.716 43.7197C115.225 43.4214 115.837 43.2604 116.943 43.5676L119.619 33.9324ZM109.772 35.0284C107.391 36.3422 105.243 38.1289 103.308 40.2873L110.754 46.9627C112.069 45.4961 113.359 44.4703 114.603 43.7841L109.772 35.0284ZM110.171 39.734L99.4838 31.109L93.2037 38.891L103.891 47.516L110.171 39.734ZM100.631 37.5725C104.171 31.6731 109.568 28.4999 117.633 28.1837L117.242 18.1913C106.182 18.6251 97.5167 23.3269 92.0563 32.4275L100.631 37.5725ZM117.667 28.1822C121.876 27.9887 125.429 29.1839 128.58 31.8099L134.982 24.1276C129.883 19.8786 123.874 17.8863 117.208 18.1928L117.667 28.1822ZM128.644 31.8617C131.609 34.2514 133.11 37.3134 133.157 41.5243L143.156 41.4132C143.078 34.3741 140.329 28.4362 134.919 24.0758L128.644 31.8617ZM133.158 41.3453C133.055 45.5088 131.915 49.1955 129.748 52.5206L138.127 57.9794C141.335 53.0545 143.008 47.5537 143.155 41.5922L133.158 41.3453ZM129.748 52.5206C127.334 56.2261 124.416 59.5104 120.98 62.3828L127.395 70.0547C131.584 66.5521 135.166 62.5239 138.127 57.9794L129.748 52.5206Z" fill="white" mask="url(#path-3-outside-2_290_3)"/>
<mask id="path-5-outside-3_290_3" maskUnits="userSpaceOnUse" x="49" y="56" width="29" height="32" fill="black">
<rect fill="white" x="49" y="56" width="29" height="32"/>
<path d="M63.0625 82.0156C59.9688 82.0156 57.6836 81.0312 56.207 79.0625C54.7539 77.0938 54.0273 74.7383 54.0273 71.9961C54.0273 68.7617 54.7891 66.1367 56.3125 64.1211C57.8359 62.1055 60.0859 61.0977 63.0625 61.0977C66.0391 61.0977 68.2891 62.1055 69.8125 64.1211C71.3594 66.1133 72.1328 68.7383 72.1328 71.9961C72.1328 75.043 71.3359 77.4805 69.7422 79.3086C68.1484 81.1133 65.9219 82.0156 63.0625 82.0156ZM63.0625 66.4062C61.7031 66.4062 60.8125 66.8867 60.3906 67.8477C59.9688 68.8086 59.7578 70.0977 59.7578 71.7148C59.6406 73.2383 59.8281 74.4805 60.3203 75.4414C60.8125 76.3789 61.7266 76.8477 63.0625 76.8477C64.4219 76.8477 65.3242 76.3789 65.7695 75.4414C66.2383 74.4805 66.4727 73.2383 66.4727 71.7148C66.4727 70.0742 66.2383 68.7852 65.7695 67.8477C65.3008 66.8867 64.3984 66.4062 63.0625 66.4062Z"/>
</mask>
<path d="M63.0625 82.0156C59.9688 82.0156 57.6836 81.0312 56.207 79.0625C54.7539 77.0938 54.0273 74.7383 54.0273 71.9961C54.0273 68.7617 54.7891 66.1367 56.3125 64.1211C57.8359 62.1055 60.0859 61.0977 63.0625 61.0977C66.0391 61.0977 68.2891 62.1055 69.8125 64.1211C71.3594 66.1133 72.1328 68.7383 72.1328 71.9961C72.1328 75.043 71.3359 77.4805 69.7422 79.3086C68.1484 81.1133 65.9219 82.0156 63.0625 82.0156ZM63.0625 66.4062C61.7031 66.4062 60.8125 66.8867 60.3906 67.8477C59.9688 68.8086 59.7578 70.0977 59.7578 71.7148C59.6406 73.2383 59.8281 74.4805 60.3203 75.4414C60.8125 76.3789 61.7266 76.8477 63.0625 76.8477C64.4219 76.8477 65.3242 76.3789 65.7695 75.4414C66.2383 74.4805 66.4727 73.2383 66.4727 71.7148C66.4727 70.0742 66.2383 68.7852 65.7695 67.8477C65.3008 66.8867 64.3984 66.4062 63.0625 66.4062Z" fill="#DCB051"/>
<path d="M56.207 79.0625L52.1842 82.0318L52.1955 82.0472L52.207 82.0625L56.207 79.0625ZM69.8125 64.1211L65.8237 67.1359L65.8433 67.1619L65.8632 67.1876L69.8125 64.1211ZM69.7422 79.3086L73.49 82.6183L73.5005 82.6063L73.5111 82.5943L69.7422 79.3086ZM59.7578 71.7148L64.7431 72.0983L64.7578 71.9069V71.7148H59.7578ZM60.3203 75.4414L55.8701 77.7208L55.8816 77.7432L55.8933 77.7656L60.3203 75.4414ZM65.7695 75.4414L61.2757 73.2493L61.2643 73.2726L61.2531 73.2961L65.7695 75.4414ZM65.7695 67.8477L61.2757 70.0398L61.2864 70.0618L61.2974 70.0837L65.7695 67.8477ZM63.0625 77.0156C61.0945 77.0156 60.4995 76.4524 60.207 76.0625L52.207 82.0625C54.8677 85.6101 58.843 87.0156 63.0625 87.0156V77.0156ZM60.2299 76.0932C59.4873 75.0871 59.0273 73.8047 59.0273 71.9961H49.0273C49.0273 75.6719 50.0206 79.1004 52.1842 82.0318L60.2299 76.0932ZM59.0273 71.9961C59.0273 69.5426 59.5979 68.0666 60.3013 67.1359L52.3237 61.1063C49.9802 64.2068 49.0273 67.9808 49.0273 71.9961H59.0273ZM60.3013 67.1359C60.7047 66.6023 61.338 66.0977 63.0625 66.0977V56.0977C58.8338 56.0977 54.9672 57.6087 52.3237 61.1063L60.3013 67.1359ZM63.0625 66.0977C64.787 66.0977 65.4203 66.6023 65.8237 67.1359L73.8013 61.1063C71.1578 57.6087 67.2912 56.0977 63.0625 56.0977V66.0977ZM65.8632 67.1876C66.5527 68.0756 67.1328 69.5222 67.1328 71.9961H77.1328C77.1328 67.9543 76.166 64.151 73.7618 61.0546L65.8632 67.1876ZM67.1328 71.9961C67.1328 74.1549 66.5856 75.3206 65.9733 76.0229L73.5111 82.5943C76.0863 79.6404 77.1328 75.931 77.1328 71.9961H67.1328ZM65.9944 75.9989C65.5289 76.5261 64.7828 77.0156 63.0625 77.0156V87.0156C67.0609 87.0156 70.768 85.7005 73.49 82.6183L65.9944 75.9989ZM63.0625 61.4062C61.8269 61.4062 60.3831 61.6205 59.001 62.3661C57.5367 63.1561 56.4533 64.3778 55.8124 65.8377L64.9688 69.8576C64.7498 70.3566 64.3227 70.8576 63.749 71.1671C63.2575 71.4322 62.9387 71.4062 63.0625 71.4062V61.4062ZM55.8124 65.8377C55.0032 67.681 54.7578 69.7421 54.7578 71.7148H64.7578C64.7578 70.4532 64.9343 69.9362 64.9688 69.8576L55.8124 65.8377ZM54.7725 71.3314C54.6125 73.4113 54.8174 75.6655 55.8701 77.7208L64.7705 73.162C64.8389 73.2954 64.6687 73.0652 64.7431 72.0983L54.7725 71.3314ZM55.8933 77.7656C57.4873 80.8018 60.4432 81.8477 63.0625 81.8477V71.8477C62.9577 71.8477 63.2278 71.8271 63.6566 72.047C64.1462 72.2981 64.5301 72.7034 64.7473 73.1172L55.8933 77.7656ZM63.0625 81.8477C65.6414 81.8477 68.7457 80.8292 70.2859 77.5867L61.2531 73.2961C61.4877 72.8023 61.9164 72.3383 62.4538 72.0591C62.9135 71.8203 63.1987 71.8477 63.0625 71.8477V81.8477ZM70.2634 77.6335C71.1758 75.763 71.4727 73.6971 71.4727 71.7148H61.4727C61.4727 72.7794 61.3007 73.1979 61.2757 73.2493L70.2634 77.6335ZM71.4727 71.7148C71.4727 69.693 71.1992 67.5266 70.2417 65.6116L61.2974 70.0837C61.2747 70.0384 61.3249 70.1226 61.3775 70.412C61.4296 70.6986 61.4727 71.1231 61.4727 71.7148H71.4727ZM70.2634 65.6555C68.7315 62.5152 65.7364 61.4062 63.0625 61.4062V71.4062C63.1541 71.4062 62.8514 71.4249 62.3912 71.18C61.8669 70.9007 61.4812 70.461 61.2757 70.0398L70.2634 65.6555Z" fill="white" mask="url(#path-5-outside-3_290_3)"/>
<mask id="path-7-outside-4_290_3" maskUnits="userSpaceOnUse" x="9" y="56" width="30" height="33" fill="black">
<rect fill="white" x="9" y="56" width="30" height="33"/>
<path d="M26.6953 77.707L33.0234 77.7773L32.9883 83.2266L16.8516 83.1211L16.7461 78.7969C17.6602 78.1406 18.5742 77.4609 19.4883 76.7578C20.4023 76.0547 21.2812 75.3164 22.125 74.543C22.9922 73.7461 23.7891 72.9023 24.5156 72.0117C25.2422 71.0977 25.6289 70.1953 25.6758 69.3047C25.7227 68.25 25.3242 67.6172 24.4805 67.4062C23.6367 67.1719 22.875 67.2539 22.1953 67.6523C21.5156 68.0273 20.8711 68.5547 20.2617 69.2344L16.2539 66C17.9414 63.1875 20.5781 61.7109 24.1641 61.5703C26.2031 61.4766 27.9961 62.0742 29.543 63.3633C31.1133 64.6289 31.9102 66.3164 31.9336 68.4258C31.8867 70.3242 31.3594 72.0469 30.3516 73.5938C29.3438 75.1406 28.125 76.5117 26.6953 77.707Z"/>
</mask>
<path d="M26.6953 77.707L33.0234 77.7773L32.9883 83.2266L16.8516 83.1211L16.7461 78.7969C17.6602 78.1406 18.5742 77.4609 19.4883 76.7578C20.4023 76.0547 21.2812 75.3164 22.125 74.543C22.9922 73.7461 23.7891 72.9023 24.5156 72.0117C25.2422 71.0977 25.6289 70.1953 25.6758 69.3047C25.7227 68.25 25.3242 67.6172 24.4805 67.4062C23.6367 67.1719 22.875 67.2539 22.1953 67.6523C21.5156 68.0273 20.8711 68.5547 20.2617 69.2344L16.2539 66C17.9414 63.1875 20.5781 61.7109 24.1641 61.5703C26.2031 61.4766 27.9961 62.0742 29.543 63.3633C31.1133 64.6289 31.9102 66.3164 31.9336 68.4258C31.8867 70.3242 31.3594 72.0469 30.3516 73.5938C29.3438 75.1406 28.125 76.5117 26.6953 77.707Z" fill="#DCB051"/>
<path d="M26.6953 77.707L23.4882 73.8711L13.1 82.5563L26.6398 82.7067L26.6953 77.707ZM33.0234 77.7773L38.0233 77.8096L38.0554 72.8329L33.079 72.7777L33.0234 77.7773ZM32.9883 83.2266L32.9556 88.2265L37.9559 88.2591L37.9882 83.2588L32.9883 83.2266ZM16.8516 83.1211L11.853 83.243L11.9713 88.0893L16.8189 88.121L16.8516 83.1211ZM16.7461 78.7969L13.8301 74.7353L11.6831 76.2766L11.7476 78.9188L16.7461 78.7969ZM22.125 74.543L25.5036 78.2287L25.5081 78.2246L22.125 74.543ZM24.5156 72.0117L28.3899 75.1724L28.41 75.1478L28.4297 75.1229L24.5156 72.0117ZM25.6758 69.3047L30.6689 69.5675L30.6699 69.5471L30.6709 69.5267L25.6758 69.3047ZM24.4805 67.4062L23.1422 72.2238L23.2048 72.2412L23.2678 72.257L24.4805 67.4062ZM22.1953 67.6523L24.6107 72.0302L24.6677 71.9988L24.7239 71.9658L22.1953 67.6523ZM20.2617 69.2344L17.1216 73.1254L20.8157 76.1066L23.9846 72.5721L20.2617 69.2344ZM16.2539 66L11.9664 63.4275L9.72787 67.1585L13.1138 69.891L16.2539 66ZM24.1641 61.5703L24.36 66.5665L24.3769 66.5658L24.3937 66.565L24.1641 61.5703ZM29.543 63.3633L26.342 67.2044L26.3735 67.2306L26.4053 67.2563L29.543 63.3633ZM31.9336 68.4258L36.9321 68.5492L36.9343 68.4597L36.9333 68.3702L31.9336 68.4258ZM26.6398 82.7067L32.9679 82.777L33.079 72.7777L26.7509 72.7073L26.6398 82.7067ZM28.0235 77.7451L27.9884 83.1943L37.9882 83.2588L38.0233 77.8096L28.0235 77.7451ZM33.021 78.2267L16.8842 78.1212L16.8189 88.121L32.9556 88.2265L33.021 78.2267ZM21.8501 82.9992L21.7446 78.675L11.7476 78.9188L11.853 83.243L21.8501 82.9992ZM19.6621 82.8585C20.622 82.1694 21.5802 81.4568 22.5368 80.7209L16.4397 72.7947C15.5682 73.4651 14.6983 74.1119 13.8301 74.7353L19.6621 82.8585ZM22.5368 80.7209C23.564 79.9308 24.5531 79.1001 25.5036 78.2287L18.7464 70.8572C18.0094 71.5328 17.2407 72.1786 16.4397 72.7947L22.5368 80.7209ZM25.5081 78.2246C26.547 77.27 27.5086 76.2527 28.3899 75.1724L20.6413 68.8511C20.0695 69.552 19.4374 70.2222 18.7419 70.8613L25.5081 78.2246ZM28.4297 75.1229C29.6046 73.6448 30.5526 71.7757 30.6689 69.5675L20.6827 69.0419C20.6877 68.9466 20.7013 68.8647 20.717 68.7996C20.7326 68.7352 20.7484 68.6948 20.7549 68.6798C20.7663 68.6532 20.7384 68.7282 20.6015 68.9005L28.4297 75.1229ZM30.6709 69.5267C30.7216 68.3859 30.5667 66.8415 29.6433 65.375C28.6459 63.7909 27.1465 62.9189 25.6931 62.5555L23.2678 72.257C22.6581 72.1046 21.7799 71.6545 21.1809 70.7031C20.656 69.8694 20.6769 69.1688 20.6807 69.0827L30.6709 69.5267ZM25.8187 62.5887C23.8309 62.0365 21.6499 62.1763 19.6667 63.3389L24.7239 71.9658C24.4712 72.114 24.1546 72.2263 23.8117 72.2632C23.4806 72.2989 23.2432 72.2519 23.1422 72.2238L25.8187 62.5887ZM19.7799 63.2745C18.5313 63.9633 17.4583 64.8711 16.5389 65.8967L23.9846 72.5721C24.2839 72.2382 24.4999 72.0914 24.6107 72.0302L19.7799 63.2745ZM23.4018 65.3434L19.394 62.109L13.1138 69.891L17.1216 73.1254L23.4018 65.3434ZM20.5414 68.5725C21.2685 67.3606 22.2713 66.6484 24.36 66.5665L23.9681 56.5742C18.885 56.7735 14.6143 59.0144 11.9664 63.4275L20.5414 68.5725ZM24.3937 66.565C25.2043 66.5278 25.769 66.7268 26.342 67.2044L32.7439 59.5222C30.2232 57.4216 27.202 56.4254 23.9344 56.5756L24.3937 66.565ZM26.4053 67.2563C26.7531 67.5365 26.9262 67.786 26.9339 68.4813L36.9333 68.3702C36.8941 64.8468 35.4735 61.7213 32.6806 59.4703L26.4053 67.2563ZM26.9351 68.3024C26.9104 69.3018 26.6489 70.1174 26.1622 70.8643L34.5409 76.3232C36.0698 73.9764 36.863 71.3466 36.9321 68.5492L26.9351 68.3024ZM26.1622 70.8643C25.4277 71.9918 24.541 72.9908 23.4882 73.8711L29.9024 81.543C31.709 80.0326 33.2598 78.2895 34.5409 76.3232L26.1622 70.8643Z" fill="white" mask="url(#path-7-outside-4_290_3)"/>
<path d="M7.5 121.375L7.3125 115.047L20.4375 114.812V111.859L12.6094 111.906L12.4688 106.094L20.4375 105.953V102.625L27.375 102.484V105.953L35.25 105.859L35.2031 111.859L27.3281 111.906L27.375 114.672L39.75 114.719L39.7031 121.188L34.1719 121.328C33.7969 122.828 33.375 124.328 32.9062 125.828L36.8906 125.781L36.9375 131.453L27.4219 131.688L27.2812 135.016L33.5625 135.109V140.125L27.4219 140.266L27.375 145.141L20.9062 145.188L20.8125 140.312L14.0625 140.359L14.0156 135.109L20.7656 135.016L20.625 131.547L10.0781 131.594L10.0312 125.969L15.0938 125.781C14.5625 124.25 14.0156 122.766 13.4531 121.328L7.5 121.375ZM27.75 121.328L19.6875 121.281C20.3125 122.656 20.8594 124.109 21.3281 125.641L26.4844 125.547C27.0781 124.172 27.5 122.766 27.75 121.328ZM60.3281 126.25L54.6562 126.719L53.8594 119.875L60.2812 119.406L60.1406 113.781L67.5469 113.453L67.6875 118.844L73.6406 118.375L73.5469 113.453L79.9219 113.406L80.0156 118.047L85.0781 117.625L85.4531 124.047L80.2969 124.562L80.2031 129.156L74.25 129.109L74.1094 125.5L67.875 126.016C67.8125 129.359 68.1875 131.438 69 132.25C69.75 132.844 71.1094 133.266 73.0781 133.516C75.0781 133.766 77.1875 133.734 79.4062 133.422L79.6406 139.703C76.9531 140.266 74.0312 140.422 70.875 140.172C67.7188 139.922 65.2969 139.203 63.6094 138.016C62.0469 136.984 61.0938 135.406 60.75 133.281C60.4375 131.125 60.2969 128.781 60.3281 126.25ZM101.109 121.375L96.7031 121.281L96.5625 114.391L101.812 114.344L102.422 109L109.969 109.516L109.5 114.062L113.906 114.156L113.766 120.766L108.703 120.859L107.578 128.688L100.125 127.703L101.109 121.375ZM116.438 124.141L122.906 124.094L122.859 131.406L127.781 133.75L125.062 139.141L122.484 137.922C121.953 140.359 121.062 142.016 119.812 142.891C118.562 143.797 116.844 144.25 114.656 144.25C112.562 144.25 110.797 143.547 109.359 142.141C107.953 140.734 107.25 139.016 107.25 136.984C107.25 134.797 108.062 132.953 109.688 131.453C111.344 129.953 113.578 129.344 116.391 129.625L116.438 124.141ZM114.703 138.859C115.453 138.859 116.062 138.578 116.531 138.016C117 137.422 117.203 136.531 117.141 135.344C116.266 135.125 115.453 135.016 114.703 135.016C113.953 135.016 113.391 135.203 113.016 135.578C112.672 135.953 112.5 136.406 112.5 136.938C112.5 137.469 112.641 137.922 112.922 138.297C113.234 138.672 113.828 138.859 114.703 138.859ZM129.047 114.719L128.719 121.328L118.406 120.672L118.734 114.156L129.047 114.719ZM142.125 122.406L139.406 115.562L146.578 112.141H153.469V140.734H145.125V121.094L142.125 122.406ZM175.125 115.516C174.5 117.484 173.625 119.359 172.5 121.141L166.125 118.422C168.219 113.891 169.766 109.203 170.766 104.359L177.656 105.953C177.531 106.891 177.312 107.828 177 108.766H198.141V115.328L190.125 115.516V119.406H195.938V124.703L190.125 124.844V128.875L200.297 128.781V135.906L190.031 136.047L189.984 143.688H182.859V135.859L168.375 135.906V129.016L174.891 128.875L175.078 119.781H182.859V115.516H175.125ZM183.609 128.875V124.469H180.516V128.875H183.609ZM229.828 130.984C232.484 131.359 234.875 131.625 237 131.781C239.156 131.906 241.781 131.859 244.875 131.641L245.344 138.297C242.969 138.859 240.172 139.047 236.953 138.859C233.766 138.641 231.062 138.25 228.844 137.688L229.828 130.984ZM230.203 115.797C233.047 115.516 235.656 115.391 238.031 115.422C240.438 115.422 242.609 115.516 244.547 115.703L244.594 122.359C242.438 122.359 240.219 122.375 237.938 122.406C235.656 122.438 233.078 122.516 230.203 122.641V115.797ZM224.906 130.75L224.812 137.406L215.062 138.438V115.891H222.562V130.703L224.906 130.75ZM258.797 121.375L254.391 121.281L254.25 114.391L259.5 114.344L260.109 109L267.656 109.516L267.188 114.062L271.594 114.156L271.453 120.766L266.391 120.859L265.266 128.688L257.812 127.703L258.797 121.375ZM274.125 124.141L280.594 124.094L280.547 131.406L285.469 133.75L282.75 139.141L280.172 137.922C279.641 140.359 278.75 142.016 277.5 142.891C276.25 143.797 274.531 144.25 272.344 144.25C270.25 144.25 268.484 143.547 267.047 142.141C265.641 140.734 264.938 139.016 264.938 136.984C264.938 134.797 265.75 132.953 267.375 131.453C269.031 129.953 271.266 129.344 274.078 129.625L274.125 124.141ZM272.391 138.859C273.141 138.859 273.75 138.578 274.219 138.016C274.688 137.422 274.891 136.531 274.828 135.344C273.953 135.125 273.141 135.016 272.391 135.016C271.641 135.016 271.078 135.203 270.703 135.578C270.359 135.953 270.188 136.406 270.188 136.938C270.188 137.469 270.328 137.922 270.609 138.297C270.922 138.672 271.516 138.859 272.391 138.859ZM286.734 114.719L286.406 121.328L276.094 120.672L276.422 114.156L286.734 114.719ZM300.047 112.891H307.266C307.078 114.234 306.953 115.766 306.891 117.484C306.859 119.172 306.859 121.109 306.891 123.297L308.719 123.438V128.875L299.906 129.062C299.781 126.594 299.703 123.969 299.672 121.188C299.672 118.375 299.797 115.609 300.047 112.891ZM315.938 112.703L323.766 112.328C324.422 118.578 324.297 124.438 323.391 129.906C322.516 135.375 319.922 140.047 315.609 143.922L309.516 139.375C312.922 136 314.969 131.891 315.656 127.047C316.375 122.203 316.469 117.422 315.938 112.703ZM356.484 126.391V130.422C359.047 131.484 361.547 132.703 363.984 134.078L360.797 140.031C359.359 139.031 358.016 138.328 356.766 137.922C355.297 141.828 352.641 143.891 348.797 144.109C346.172 144.141 344.016 143.484 342.328 142.141C340.672 140.797 339.781 138.984 339.656 136.703C339.625 133.953 340.594 131.875 342.562 130.469C344.562 129.062 346.828 128.469 349.359 128.688V126.719H341.344L341.203 120.484L349.359 120.438V117.391H342.188L342.141 111.25L349.359 111.156V108.812L356.25 108.719L356.391 111.25L360.656 111.203L360.703 117.297L356.625 117.344V120.016L362.062 119.922L361.969 126.25L356.484 126.391ZM348.797 137.969C350.016 137.25 350.562 136.203 350.438 134.828C348.938 134.266 347.75 134.188 346.875 134.594C346.281 134.844 345.875 135.219 345.656 135.719C345.438 136.188 345.438 136.656 345.656 137.125C345.938 137.688 346.375 138.047 346.969 138.203C347.562 138.328 348.172 138.25 348.797 137.969ZM396.797 108.109L396.891 111.766L403.031 111.672L403.219 118.609L397.5 118.797C397.75 123.297 397.625 127.734 397.125 132.109C396.625 136.484 395.078 140.531 392.484 144.25L386.344 141.156C387.594 139.625 388.391 137.969 388.734 136.188C386.828 136.562 384.859 136.219 382.828 135.156C380.797 134.062 379.703 132.266 379.547 129.766C379.547 127.516 380.094 125.703 381.188 124.328C382.312 122.922 383.859 122.094 385.828 121.844C387.172 121.688 388.406 121.859 389.531 122.359L389.438 118.891L376.594 119.078L376.453 112.234L388.969 112.141L388.875 108.391L396.797 108.109ZM387.797 130.938C388.422 130.938 388.906 130.734 389.25 130.328C389.594 129.922 389.766 129.344 389.766 128.594C389.766 128.156 389.547 127.781 389.109 127.469C388.672 127.125 388.109 126.953 387.422 126.953C386.828 126.953 386.375 127.156 386.062 127.562C385.781 127.969 385.641 128.5 385.641 129.156C385.672 129.812 385.891 130.281 386.297 130.562C386.703 130.812 387.203 130.938 387.797 130.938ZM435.609 122.875L435.516 128.734L443.203 133.797L439.312 139.422L434.672 136.516C433.953 138.578 432.891 140.219 431.484 141.438C430.109 142.625 428.062 143.281 425.344 143.406C422.688 143.375 420.469 142.594 418.688 141.062C416.906 139.5 416.016 137.188 416.016 134.125C416.016 131.125 417.141 128.797 419.391 127.141C421.641 125.453 424.578 124.891 428.203 125.453V110.875L435.562 110.781L435.609 116.219H442.172L442.406 122.688L435.609 122.875ZM425.719 136.797C426.562 136.797 427.25 136.5 427.781 135.906C428.344 135.281 428.719 134.312 428.906 133C427.594 131.938 426.234 131.562 424.828 131.875C423.453 132.156 422.766 132.938 422.766 134.219C422.766 135.281 423.094 135.984 423.75 136.328C424.406 136.641 425.062 136.797 425.719 136.797ZM468.469 127.375C467.562 126.094 465.859 125.578 463.359 125.828C460.859 126.047 458.469 126.656 456.188 127.656L454.125 120.391C456.125 119.672 458.047 119.094 459.891 118.656C461.766 118.219 464.203 117.969 467.203 117.906C469.828 117.875 472.094 118.781 474 120.625C475.938 122.438 476.938 124.812 477 127.75C477.062 131.5 476.203 134.734 474.422 137.453C472.641 140.141 470.188 142.516 467.062 144.578L462.188 139.234C464.688 137.484 466.594 135.562 467.906 133.469C469.25 131.344 469.438 129.312 468.469 127.375ZM472.078 109.234L471 115.375L459.141 113.641L460.078 107.547L472.078 109.234ZM505.359 130.984C508.016 131.359 510.406 131.625 512.531 131.781C514.688 131.906 517.312 131.859 520.406 131.641L520.875 138.297C518.5 138.859 515.703 139.047 512.484 138.859C509.297 138.641 506.594 138.25 504.375 137.688L505.359 130.984ZM505.734 115.797C508.578 115.516 511.188 115.391 513.562 115.422C515.969 115.422 518.141 115.516 520.078 115.703L520.125 122.359C517.969 122.359 515.75 122.375 513.469 122.406C511.188 122.438 508.609 122.516 505.734 122.641V115.797ZM500.438 130.75L500.344 137.406L490.594 138.438V115.891H498.094V130.703L500.438 130.75Z" fill="white"/>
</svg>
