<svg width="150" height="197" viewBox="0 0 150 197" fill="none" xmlns="http://www.w3.org/2000/svg">
<path d="M58.223 71.6029C58.223 87.2585 45.4871 99.9769 29.7431 99.9769C13.9991 99.9769 1.26318 87.2585 1.26318 71.6029C1.26318 55.9474 13.9991 43.229 29.7431 43.229C45.4871 43.229 58.223 55.9474 58.223 71.6029Z" stroke="white" stroke-width="10"/>
<path d="M49.701 94.6615C49.701 110.317 36.9651 123.035 21.2211 123.035C5.47715 123.035 -7.25879 110.317 -7.25879 94.6615C-7.25879 79.006 5.47715 66.2876 21.2211 66.2876C36.9651 66.2876 49.701 79.006 49.701 94.6615Z" stroke="#A70F09" stroke-width="10"/>
<path d="M67.354 98.9093C67.354 112.889 55.9808 124.249 41.9177 124.249C27.8547 124.249 16.4814 112.889 16.4814 98.9093C16.4814 84.9293 27.8547 73.5693 41.9177 73.5693C55.9808 73.5693 67.354 84.9293 67.354 98.9093Z" stroke="#DCB051" stroke-width="10"/>
<path d="M81.0942 95.8749C81.0942 127.761 55.1505 153.691 23.0471 153.691C-9.0563 153.691 -35 127.761 -35 95.8749C-35 63.9889 -9.0563 38.0591 23.0471 38.0591C55.1505 38.0591 81.0942 63.9889 81.0942 95.8749Z" stroke="url(#paint0_linear_212_50313)" stroke-width="30"/>
<path d="M75.7492 50.6748C79.3434 54.5583 84.5968 54.5843 90.5995 50.7296C96.6021 46.8748 107.316 35.3147 109.578 31.9288C97.1747 30.9595 86.3571 34.2352 82.8138 36.3328C79.25 38.4337 70.8064 45.3456 75.7492 50.6748Z" fill="#4F8C5E"/>
<path d="M64.1979 49.233C68.8189 47.6785 68.6017 38.5506 67.0617 30.6417C65.5217 22.7329 49.3923 8.75962 49.3923 8.75962C49.3923 8.75962 47.0926 27.4504 48.7084 36.7551C50.3448 46.0566 55.4156 52.185 64.1741 49.2158L64.1979 49.233Z" fill="#4F8C5E"/>
<path d="M67.0925 52.8289C75.3011 55.1169 80.986 48.2234 84.397 42.0069C87.808 35.7904 89.3911 14.3346 88.661 6.61217C73.7468 15.7721 67.3342 28.3922 64.6523 37.0566C61.9704 45.721 60.9131 51.1008 67.1131 52.8256L67.0925 52.8289Z" fill="#4F8C5E"/>
<ellipse cx="45.6168" cy="48.9645" rx="9.73961" ry="9.52207" fill="#DCB051"/>
<ellipse cx="34.0043" cy="60.1676" rx="9.73961" ry="9.52207" fill="#DCB051"/>
<ellipse cx="50.8612" cy="60.1676" rx="9.73961" ry="9.52207" fill="#DCB051"/>
<ellipse cx="41.1214" cy="72.4894" rx="9.73961" ry="9.52207" fill="#DCB051"/>
<ellipse cx="58.3534" cy="69.8761" rx="9.73961" ry="9.52207" fill="#DCB051"/>
<ellipse cx="63.223" cy="55.6856" rx="9.73961" ry="9.52207" fill="#DCB051"/>
<line x1="38.1245" y1="60.2271" x2="55.3724" y2="60.2271" stroke="#A70F09"/>
<line y1="-0.5" x2="17.2206" y2="-0.5" transform="matrix(0.708227 -0.705985 0.708227 0.705985 41.1213 66.9106)" stroke="#A70F09"/>
<line y1="-0.5" x2="17.2206" y2="-0.5" transform="matrix(0.708227 0.705985 -0.708227 0.705985 40.7468 54.7529)" stroke="#A70F09"/>
<ellipse cx="40.9342" cy="54.9399" rx="2.4349" ry="2.42719" fill="#A70F09"/>
<ellipse cx="39.2484" cy="60.7271" rx="1.4984" ry="1.49366" fill="#A70F09"/>
<ellipse cx="51.7976" cy="65.7691" rx="2.0603" ry="2.05378" fill="#A70F09"/>
<ellipse cx="53.6708" cy="60.9138" rx="1.6857" ry="1.68037" fill="#A70F09"/>
<ellipse cx="42.6198" cy="65.955" rx="1.873" ry="1.86707" fill="#A70F09"/>
<ellipse cx="52.7341" cy="54.3798" rx="1.873" ry="1.86707" fill="#A70F09"/>
<ellipse cx="75.772" cy="68.8954" rx="14.6094" ry="14.2831" fill="#A70F09"/>
<ellipse cx="58.3531" cy="85.6996" rx="14.6094" ry="14.2831" fill="#A70F09"/>
<ellipse cx="83.6387" cy="85.6996" rx="14.6094" ry="14.2831" fill="#A70F09"/>
<ellipse cx="69.0291" cy="104.183" rx="14.6094" ry="14.2831" fill="#A70F09"/>
<ellipse cx="94.8768" cy="100.264" rx="14.6094" ry="14.2831" fill="#A70F09"/>
<ellipse cx="102.181" cy="78.977" rx="14.6094" ry="14.2831" fill="#A70F09"/>
<line x1="64.5339" y1="86.0386" x2="90.4058" y2="86.0386" stroke="#DCB051"/>
<line y1="-0.5" x2="25.8309" y2="-0.5" transform="matrix(0.708227 -0.705985 0.708227 0.705985 69.0293 95.8145)" stroke="#DCB051"/>
<line y1="-0.5" x2="25.8309" y2="-0.5" transform="matrix(0.708227 0.705985 -0.708227 0.705985 68.4673 77.5776)" stroke="#DCB051"/>
<ellipse cx="68.7483" cy="77.8576" rx="3.65235" ry="3.64079" fill="#DCB051"/>
<ellipse cx="66.2198" cy="86.5393" rx="2.2476" ry="2.24049" fill="#DCB051"/>
<ellipse cx="85.0433" cy="94.1026" rx="3.09045" ry="3.08067" fill="#DCB051"/>
<ellipse cx="87.853" cy="86.8194" rx="2.52855" ry="2.52055" fill="#DCB051"/>
<ellipse cx="71.2768" cy="94.3807" rx="2.8095" ry="2.80061" fill="#DCB051"/>
<ellipse cx="86.4482" cy="77.0174" rx="2.8095" ry="2.80061" fill="#DCB051"/>
<ellipse cx="69.2635" cy="110.321" rx="6.08726" ry="5.95129" fill="white"/>
<ellipse cx="62.0057" cy="117.323" rx="6.08726" ry="5.95129" fill="white"/>
<ellipse cx="72.5414" cy="117.323" rx="6.08726" ry="5.95129" fill="white"/>
<ellipse cx="66.454" cy="125.025" rx="6.08726" ry="5.95129" fill="white"/>
<ellipse cx="77.2237" cy="123.391" rx="6.08726" ry="5.95129" fill="white"/>
<ellipse cx="80.2674" cy="114.522" rx="6.08726" ry="5.95129" fill="white"/>
<line x1="64.5811" y1="117.173" x2="75.361" y2="117.173" stroke="#5A4136"/>
<line y1="-0.5" x2="10.7629" y2="-0.5" transform="matrix(0.708227 -0.705985 0.708227 0.705985 66.4539 121.537)" stroke="#5A4136"/>
<line y1="-0.5" x2="10.7629" y2="-0.5" transform="matrix(0.708227 0.705985 -0.708227 0.705985 66.2197 113.938)" stroke="#5A4136"/>
<ellipse cx="66.337" cy="114.056" rx="1.52181" ry="1.517" fill="#5A4136"/>
<ellipse cx="65.2834" cy="117.673" rx="0.936501" ry="0.933536" fill="#5A4136"/>
<ellipse cx="73.1266" cy="120.824" rx="1.28769" ry="1.28361" fill="#5A4136"/>
<ellipse cx="74.2972" cy="117.79" rx="1.05356" ry="1.05023" fill="#5A4136"/>
<ellipse cx="67.3904" cy="120.941" rx="1.17063" ry="1.16692" fill="#5A4136"/>
<ellipse cx="73.7116" cy="113.705" rx="1.17063" ry="1.16692" fill="#5A4136"/>
<ellipse cx="79.6117" cy="49.0348" rx="6.08726" ry="5.95129" fill="white"/>
<ellipse cx="72.3539" cy="56.0358" rx="6.08726" ry="5.95129" fill="white"/>
<ellipse cx="82.8895" cy="56.0358" rx="6.08726" ry="5.95129" fill="white"/>
<ellipse cx="76.8023" cy="63.7374" rx="6.08726" ry="5.95129" fill="white"/>
<ellipse cx="87.5719" cy="62.1036" rx="6.08726" ry="5.95129" fill="white"/>
<ellipse cx="90.6156" cy="53.2355" rx="6.08726" ry="5.95129" fill="white"/>
<line x1="74.9292" y1="55.8857" x2="85.7091" y2="55.8857" stroke="#5A4136"/>
<line y1="-0.5" x2="10.7629" y2="-0.5" transform="matrix(0.708227 -0.705985 0.708227 0.705985 76.8022 60.2505)" stroke="#5A4136"/>
<line y1="-0.5" x2="10.7629" y2="-0.5" transform="matrix(0.708227 0.705985 -0.708227 0.705985 76.5679 52.6523)" stroke="#5A4136"/>
<ellipse cx="76.6851" cy="52.769" rx="1.52181" ry="1.517" fill="#5A4136"/>
<ellipse cx="75.6316" cy="56.3867" rx="0.936501" ry="0.933536" fill="#5A4136"/>
<ellipse cx="83.4747" cy="59.5375" rx="1.28769" ry="1.28361" fill="#5A4136"/>
<ellipse cx="84.6454" cy="56.5034" rx="1.05356" ry="1.05023" fill="#5A4136"/>
<ellipse cx="77.7385" cy="59.6537" rx="1.17063" ry="1.16692" fill="#5A4136"/>
<ellipse cx="84.06" cy="52.4189" rx="1.17063" ry="1.16692" fill="#5A4136"/>
<path d="M142.658 141.397C145.313 142.922 146.226 146.307 144.698 148.956C143.17 151.606 139.779 152.517 137.124 150.992C134.469 149.467 127.803 139.249 127.803 139.249C127.803 139.249 140.003 139.872 142.658 141.397Z" fill="#DCB051"/>
<path d="M121.338 133.585C123.993 135.11 124.906 138.495 123.378 141.144C121.85 143.794 118.458 144.705 115.804 143.18C113.149 141.655 106.483 131.437 106.483 131.437C106.483 131.437 118.683 132.06 121.338 133.585Z" fill="#DCB051"/>
<path d="M101.212 123.937C103.867 125.462 104.78 128.847 103.252 131.496C101.724 134.146 98.3325 135.057 95.6776 133.532C93.0228 132.007 86.3567 121.789 86.3567 121.789C86.3567 121.789 98.5574 122.412 101.212 123.937Z" fill="#DCB051"/>
<path d="M103.128 152.592C104.719 155.205 103.888 158.61 101.27 160.199C98.6529 161.787 95.2408 160.957 93.6492 158.345C92.0576 155.733 91.1413 143.574 91.1413 143.574C91.1413 143.574 101.536 149.98 103.128 152.592Z" fill="#DCB051"/>
<path d="M90.1381 134.469C91.7298 137.082 90.8982 140.487 88.2808 142.075C85.6634 143.664 82.2513 142.834 80.6597 140.222C79.0681 137.61 78.1518 125.451 78.1518 125.451C78.1518 125.451 88.5465 131.857 90.1381 134.469Z" fill="#DCB051"/>
<path d="M85.7602 187.606C85.9856 190.655 83.6917 193.309 80.6366 193.534C77.5816 193.758 74.9223 191.469 74.697 188.42C74.4716 185.371 79.2025 174.13 79.2025 174.13C79.2025 174.13 85.5349 184.557 85.7602 187.606Z" fill="#DCB051"/>
<path d="M80.2712 165.611C80.4966 168.66 78.2027 171.314 75.1476 171.539C72.0926 171.764 69.4333 169.474 69.208 166.425C68.9826 163.376 73.7135 152.135 73.7135 152.135C73.7135 152.135 80.0459 162.562 80.2712 165.611Z" fill="#DCB051"/>
<path d="M76.9741 143.573C77.1995 146.622 74.9056 149.276 71.8505 149.501C68.7955 149.726 66.1362 147.436 65.9108 144.387C65.6855 141.338 70.4164 130.097 70.4164 130.097C70.4164 130.097 76.7488 140.524 76.9741 143.573Z" fill="#DCB051"/>
<defs>
<linearGradient id="paint0_linear_212_50313" x1="-78" y1="108.877" x2="71.9894" y2="81.8489" gradientUnits="userSpaceOnUse">
<stop stop-color="#DCB051"/>
<stop offset="0.720522" stop-color="#DCB051"/>
<stop offset="1" stop-color="#5A4136"/>
</linearGradient>
</defs>
</svg>
